<?xml version="1.0" encoding="UTF-8"?>
<!DOCTYPE svg PUBLIC "-//W3C//DTD SVG 1.1//EN" "http://www.w3.org/Graphics/SVG/1.1/DTD/svg11.dtd">
<svg xmlns="http://www.w3.org/2000/svg" version="1.1" width="1000px" height="1000px" style="shape-rendering:geometricPrecision; text-rendering:geometricPrecision; image-rendering:optimizeQuality; fill-rule:evenodd; clip-rule:evenodd" xmlns:xlink="http://www.w3.org/1999/xlink">
<g><path style="opacity:0.988" fill="#000000" d="M 702.5,290.5 C 703.782,304.503 703.782,318.503 702.5,332.5C 698.519,358.303 686.853,379.803 667.5,397C 643.948,414.228 618.615,417.228 591.5,406C 567.609,395.436 546.442,380.936 528,362.5C 522.577,354.655 516.911,346.989 511,339.5C 508.584,336.577 505.75,334.243 502.5,332.5C 499.852,329.738 497.519,330.071 495.5,333.5C 488.472,339.892 482.639,347.225 478,355.5C 465.269,370.244 450.769,382.744 434.5,393C 416.774,404.367 397.441,410.867 376.5,412.5C 346.243,410.079 324.076,395.412 310,368.5C 294.506,336.732 292.172,304.065 303,270.5C 305.71,264.465 309.21,258.965 313.5,254C 317.116,251.359 321.116,249.526 325.5,248.5C 328.082,248.747 328.915,250.08 328,252.5C 311.272,271.958 311.438,291.125 328.5,310C 338.5,317.999 349.833,320.666 362.5,318C 379.025,312.487 393.191,303.32 405,290.5C 415.425,277.404 426.592,264.904 438.5,253C 456.351,237.86 474.351,237.86 492.5,253C 495.009,254.336 497.676,255.17 500.5,255.5C 508.923,251.593 517.256,247.427 525.5,243C 539.195,239.424 551.195,242.424 561.5,252C 575.763,268.933 590.763,285.267 606.5,301C 615.495,309 625.829,314.666 637.5,318C 648.726,320.147 659.059,318.147 668.5,312C 686.753,298.239 690.253,281.406 679,261.5C 669.365,250.786 671.531,247.619 685.5,252C 695.386,262.941 701.052,275.774 702.5,290.5 Z"/></g>
<g><path style="opacity:0.869" fill="#212121" d="M 702.5,290.5 C 703.302,291.952 703.802,293.618 704,295.5C 704.667,306.5 704.667,317.5 704,328.5C 703.79,330.058 703.29,331.391 702.5,332.5C 703.782,318.503 703.782,304.503 702.5,290.5 Z"/></g>
<g><path style="opacity:0.224" fill="#444444" d="M 502.5,332.5 C 500.097,332.448 497.764,332.781 495.5,333.5C 497.519,330.071 499.852,329.738 502.5,332.5 Z"/></g>
<g><path style="opacity:0.991" fill="#000000" d="M 686.5,490.5 C 686.5,502.833 686.5,515.167 686.5,527.5C 685.796,538.468 683.629,549.135 680,559.5C 678.744,563.016 676.744,566.016 674,568.5C 672.275,567.536 670.441,566.869 668.5,566.5C 668.5,565.833 668.167,565.5 667.5,565.5C 664.324,563.727 662.657,564.727 662.5,568.5C 659.01,610.311 642.01,645.478 611.5,674C 610.207,674.49 608.873,674.657 607.5,674.5C 606.841,670.006 604.175,668.339 599.5,669.5C 599.5,671.167 599.5,672.833 599.5,674.5C 595.551,680.289 591.384,685.956 587,691.5C 573.362,704.137 560.029,717.137 547,730.5C 541.004,738.465 539.504,747.132 542.5,756.5C 542.167,758.167 541.167,759.167 539.5,759.5C 501.304,754.164 466.637,740.331 435.5,718C 420.443,705.276 407.11,690.943 395.5,675C 390.738,674.033 386.071,672.699 381.5,671C 366.335,655.843 356.501,637.677 352,616.5C 350.844,608.722 349.178,601.055 347,593.5C 346.64,583.693 345.473,574.026 343.5,564.5C 343.441,562.278 342.275,561.278 340,561.5C 338.301,561.387 337.134,562.053 336.5,563.5C 334.278,563.822 332.444,563.155 331,561.5C 322.212,541.393 317.712,520.393 317.5,498.5C 318.281,489.194 318.781,479.861 319,470.5C 321.776,454.84 325.776,439.506 331,424.5C 331.5,424 332,423.5 332.5,423C 343.275,422.021 353.941,422.688 364.5,425C 420.939,426.202 463.106,402.369 491,353.5C 493.411,351.422 496.078,349.755 499,348.5C 502.221,349.716 504.888,351.716 507,354.5C 543.932,413.203 596.766,436.37 665.5,424C 672.066,433.301 676.9,443.468 680,454.5C 683.673,466.219 685.839,478.219 686.5,490.5 Z M 660.5,479.5 C 662.708,480.894 664.208,482.894 665,485.5C 666.587,493.777 667.754,502.11 668.5,510.5C 667.566,513.656 666.899,516.989 666.5,520.5C 665.072,534.91 658.072,545.577 645.5,552.5C 644.833,552.5 644.167,552.5 643.5,552.5C 641.896,551.713 641.229,550.38 641.5,548.5C 644.669,542.162 647.836,535.829 651,529.5C 652.823,522.55 654.323,515.55 655.5,508.5C 656.164,506.19 656.497,503.69 656.5,501C 656.606,496.573 655.94,492.406 654.5,488.5C 654.5,485.833 654.5,483.167 654.5,480.5C 655.167,480.5 655.5,480.167 655.5,479.5C 657.167,478.167 658.833,478.167 660.5,479.5 Z M 391.5,543.5 C 391.842,544.338 392.508,544.672 393.5,544.5C 397.853,552.37 401.353,560.703 404,569.5C 406.667,574.833 409.333,580.167 412,585.5C 418.699,593.365 425.865,600.698 433.5,607.5C 433.635,609.554 432.968,611.221 431.5,612.5C 431.167,612.5 430.833,612.5 430.5,612.5C 416.116,608.88 405.283,600.547 398,587.5C 390.296,574.441 386.463,560.441 386.5,545.5C 387.167,545.5 387.5,545.167 387.5,544.5C 388.833,544.167 390.167,543.833 391.5,543.5 Z M 379.5,563.5 C 381.893,565.736 383.727,568.403 385,571.5C 399.747,622.208 428.58,662.708 471.5,693C 486.973,702.324 503.64,708.157 521.5,710.5C 523.757,712.878 524.09,715.545 522.5,718.5C 519.488,720.502 516.155,721.669 512.5,722C 487.344,723.712 464.677,717.045 444.5,702C 420.943,681.74 403.109,657.24 391,628.5C 383.468,609.341 377.635,589.675 373.5,569.5C 374.046,567.865 374.38,566.199 374.5,564.5C 376.042,563.699 377.708,563.366 379.5,563.5 Z"/></g>
<g><path style="opacity:0.863" fill="#444444" d="M 660.5,477.5 C 659.18,476.058 657.514,475.392 655.5,475.5C 655.5,476.833 655.5,478.167 655.5,479.5C 655.5,480.167 655.167,480.5 654.5,480.5C 654.5,478.167 654.5,475.833 654.5,473.5C 657.878,472.891 659.878,474.224 660.5,477.5 Z"/></g>
<g><path style="opacity:0.298" fill="#858585" d="M 660.5,477.5 C 660.5,478.167 660.5,478.833 660.5,479.5C 658.833,478.167 657.167,478.167 655.5,479.5C 655.5,478.167 655.5,476.833 655.5,475.5C 657.514,475.392 659.18,476.058 660.5,477.5 Z"/></g>
<g><path style="opacity:0.512" fill="#191919" d="M 654.5,488.5 C 655.94,492.406 656.606,496.573 656.5,501C 656.497,503.69 656.164,506.19 655.5,508.5C 655.473,501.814 655.139,495.148 654.5,488.5 Z"/></g>
<g><path style="opacity:0.447" fill="#1f1f1f" d="M 668.5,510.5 C 668.664,513.187 668.497,515.854 668,518.5C 667.722,519.416 667.222,520.082 666.5,520.5C 666.899,516.989 667.566,513.656 668.5,510.5 Z"/></g>
<g><path style="opacity:0.97" fill="#272727" d="M 686.5,490.5 C 687.972,496.601 688.639,502.935 688.5,509.5C 688.667,515.74 688,521.74 686.5,527.5C 686.5,515.167 686.5,502.833 686.5,490.5 Z"/></g>
<g><path style="opacity:0.98" fill="#414141" d="M 393.5,544.5 C 392.508,544.672 391.842,544.338 391.5,543.5C 391.083,542.876 390.416,542.543 389.5,542.5C 388.287,542.747 387.62,543.414 387.5,544.5C 387.5,545.167 387.167,545.5 386.5,545.5C 386.5,543.833 386.5,542.167 386.5,540.5C 390.183,539.68 392.517,541.013 393.5,544.5 Z"/></g>
<g><path style="opacity:0.553" fill="#8b8b8b" d="M 391.5,543.5 C 390.167,543.833 388.833,544.167 387.5,544.5C 387.62,543.414 388.287,542.747 389.5,542.5C 390.416,542.543 391.083,542.876 391.5,543.5 Z"/></g>
<g><path style="opacity:0.506" fill="#9e9e9e" d="M 641.5,548.5 C 641.229,550.38 641.896,551.713 643.5,552.5C 643.5,553.167 643.5,553.833 643.5,554.5C 642.167,554.5 640.833,554.5 639.5,554.5C 639.5,553.167 639.5,551.833 639.5,550.5C 639.833,549.5 640.5,548.833 641.5,548.5 Z"/></g>
<g><path style="opacity:0.682" fill="#505050" d="M 643.5,552.5 C 644.167,552.5 644.833,552.5 645.5,552.5C 645.5,553.167 645.5,553.833 645.5,554.5C 644.833,554.5 644.167,554.5 643.5,554.5C 643.5,553.833 643.5,553.167 643.5,552.5 Z"/></g>
<g><path style="opacity:0.694" fill="#666666" d="M 639.5,550.5 C 639.5,551.833 639.5,553.167 639.5,554.5C 640.833,554.5 642.167,554.5 643.5,554.5C 642.081,555.451 640.415,555.784 638.5,555.5C 638.5,554.167 638.5,552.833 638.5,551.5C 638.5,550.833 638.833,550.5 639.5,550.5 Z"/></g>
<g><path style="opacity:0.81" fill="#2f2f2f" d="M 638.5,551.5 C 638.5,552.833 638.5,554.167 638.5,555.5C 640.415,555.784 642.081,555.451 643.5,554.5C 644.167,554.5 644.833,554.5 645.5,554.5C 645.389,555.117 645.056,555.617 644.5,556C 642.19,556.497 639.857,556.663 637.5,556.5C 637.216,554.585 637.549,552.919 638.5,551.5 Z"/></g>
<g><path style="opacity:1" fill="#2a2a2a" d="M 379.5,561.5 C 378.833,561.5 378.5,561.167 378.5,560.5C 377.878,557.224 375.878,555.891 372.5,556.5C 372.5,557.5 372.5,558.5 372.5,559.5C 371.199,558.116 371.199,556.616 372.5,555C 378.494,553.159 380.827,555.326 379.5,561.5 Z"/></g>
<g><path style="opacity:0.983" fill="#575757" d="M 378.5,560.5 C 377.518,559.859 376.518,559.193 375.5,558.5C 374.614,559.325 374.281,560.325 374.5,561.5C 373.5,561.167 372.833,560.5 372.5,559.5C 372.5,558.5 372.5,557.5 372.5,556.5C 375.878,555.891 377.878,557.224 378.5,560.5 Z"/></g>
<g><path style="opacity:0.827" fill="#8a8a8a" d="M 378.5,560.5 C 378.5,561.167 378.833,561.5 379.5,561.5C 379.5,562.167 379.5,562.833 379.5,563.5C 377.708,563.366 376.042,563.699 374.5,564.5C 374.5,563.5 374.5,562.5 374.5,561.5C 374.281,560.325 374.614,559.325 375.5,558.5C 376.518,559.193 377.518,559.859 378.5,560.5 Z"/></g>
<g><path style="opacity:0.824" fill="#404040" d="M 343.5,564.5 C 341.236,563.781 338.903,563.448 336.5,563.5C 337.134,562.053 338.301,561.387 340,561.5C 342.275,561.278 343.441,562.278 343.5,564.5 Z"/></g>
<g><path style="opacity:0.992" fill="#353535" d="M 667.5,565.5 C 665.821,565.285 664.821,565.952 664.5,567.5C 663.833,567.833 663.167,568.167 662.5,568.5C 662.657,564.727 664.324,563.727 667.5,565.5 Z"/></g>
<g><path style="opacity:0.455" fill="#6a6a6a" d="M 667.5,565.5 C 668.167,565.5 668.5,565.833 668.5,566.5C 667.041,566.433 665.708,566.766 664.5,567.5C 664.821,565.952 665.821,565.285 667.5,565.5 Z"/></g>
<g><path style="opacity:0.439" fill="#7e7e7e" d="M 433.5,607.5 C 434.492,607.328 435.158,607.662 435.5,608.5C 435.5,609.833 435.5,611.167 435.5,612.5C 434.167,612.5 432.833,612.5 431.5,612.5C 432.968,611.221 433.635,609.554 433.5,607.5 Z"/></g>
<g><path style="opacity:0.914" fill="#3f3f3f" d="M 435.5,608.5 C 437.213,609.635 437.88,611.302 437.5,613.5C 434.941,613.802 432.607,613.468 430.5,612.5C 430.833,612.5 431.167,612.5 431.5,612.5C 432.833,612.5 434.167,612.5 435.5,612.5C 435.5,611.167 435.5,609.833 435.5,608.5 Z"/></g>
<g><path style="opacity:1" fill="#1b1b1b" d="M 607.5,674.5 C 607.167,674.5 606.833,674.5 606.5,674.5C 605.32,672.087 603.32,671.087 600.5,671.5C 600.5,672.5 600.5,673.5 600.5,674.5C 600.167,674.5 599.833,674.5 599.5,674.5C 599.5,672.833 599.5,671.167 599.5,669.5C 604.175,668.339 606.841,670.006 607.5,674.5 Z"/></g>
<g><path style="opacity:0.988" fill="#535353" d="M 606.5,674.5 C 605.833,674.5 605.167,674.5 604.5,674.5C 603.5,671.833 602.5,671.833 601.5,674.5C 601.167,674.5 600.833,674.5 600.5,674.5C 600.5,673.5 600.5,672.5 600.5,671.5C 603.32,671.087 605.32,672.087 606.5,674.5 Z"/></g>
<g><path style="opacity:0.004" fill="#7f7f7f" d="M 604.5,674.5 C 603.5,674.5 602.5,674.5 601.5,674.5C 602.5,671.833 603.5,671.833 604.5,674.5 Z"/></g>
<g><path style="opacity:0.933" fill="#3e3e3e" d="M 521.5,710.5 C 524.05,710.884 525.383,712.384 525.5,715C 525.285,716.908 524.285,718.074 522.5,718.5C 524.09,715.545 523.757,712.878 521.5,710.5 Z"/></g>
</svg>
