<?xml version="1.0" encoding="UTF-8"?>
<!DOCTYPE svg PUBLIC "-//W3C//DTD SVG 1.1//EN" "http://www.w3.org/Graphics/SVG/1.1/DTD/svg11.dtd">
<svg xmlns="http://www.w3.org/2000/svg" version="1.1" width="1000px" height="1000px" style="shape-rendering:geometricPrecision; text-rendering:geometricPrecision; image-rendering:optimizeQuality; fill-rule:evenodd; clip-rule:evenodd" xmlns:xlink="http://www.w3.org/1999/xlink">
<g><path style="opacity:0.998" fill="#010101" d="M 542.5,80.5 C 542.881,81.9311 543.881,82.7645 545.5,83C 547.81,83.4966 550.143,83.6633 552.5,83.5C 555.906,83.9555 559.239,84.6222 562.5,85.5C 564.503,87.9819 567.169,88.9819 570.5,88.5C 571.959,88.4326 573.292,88.7659 574.5,89.5C 576.206,91.5358 578.539,92.5358 581.5,92.5C 582.833,92.8333 584.167,93.1667 585.5,93.5C 586.048,96.0838 587.715,97.0838 590.5,96.5C 599.69,100.589 608.023,105.922 615.5,112.5C 617.523,115.52 620.19,117.854 623.5,119.5C 624.757,122.427 626.757,124.761 629.5,126.5C 633.546,131.214 637.212,136.214 640.5,141.5C 640.738,143.404 641.738,144.738 643.5,145.5C 647.869,149.237 651.535,153.57 654.5,158.5C 653.756,161.95 655.09,163.616 658.5,163.5C 659.833,163.833 661.167,164.167 662.5,164.5C 662.5,165.833 662.5,167.167 662.5,168.5C 665.5,168.5 668.5,168.5 671.5,168.5C 673.565,168.517 675.565,168.85 677.5,169.5C 678.287,171.104 679.62,171.771 681.5,171.5C 684.906,171.956 688.239,172.622 691.5,173.5C 687.761,175.252 686.761,177.919 688.5,181.5C 689.183,183.176 690.517,183.843 692.5,183.5C 694.5,184.167 696.5,184.833 698.5,185.5C 698.821,187.048 699.821,187.715 701.5,187.5C 703.784,187.975 705.784,188.975 707.5,190.5C 707.821,192.048 708.821,192.715 710.5,192.5C 712.23,193.026 713.564,194.026 714.5,195.5C 716.569,198.573 719.236,200.906 722.5,202.5C 725.358,204.712 726.691,207.712 726.5,211.5C 723.966,213.916 723.966,216.25 726.5,218.5C 731.439,233.985 735.772,249.652 739.5,265.5C 739.259,267.898 739.926,269.898 741.5,271.5C 742.801,283.039 742.801,294.705 741.5,306.5C 739.896,307.287 739.229,308.62 739.5,310.5C 739.101,314.116 738.101,317.45 736.5,320.5C 734.72,321.99 734.054,323.99 734.5,326.5C 734.806,329.385 734.473,332.052 733.5,334.5C 731.72,335.99 731.054,337.99 731.5,340.5C 731.016,344.232 730.349,347.899 729.5,351.5C 726.828,353.391 725.828,356.058 726.5,359.5C 726.599,362.237 726.265,364.904 725.5,367.5C 722.908,369.036 721.908,371.369 722.5,374.5C 722.483,376.565 722.15,378.565 721.5,380.5C 719.952,380.821 719.285,381.821 719.5,383.5C 708.54,401.425 699.707,420.425 693,440.5C 692.501,434.843 692.334,429.176 692.5,423.5C 694.689,421.776 695.856,419.442 696,416.5C 696.823,408.323 696.656,400.323 695.5,392.5C 695.5,391.833 695.5,391.167 695.5,390.5C 695.5,387.167 695.5,383.833 695.5,380.5C 695.954,375.339 694.954,370.673 692.5,366.5C 692.59,356.482 692.257,346.482 691.5,336.5C 691.5,329.833 691.5,323.167 691.5,316.5C 691.669,309.854 690.669,303.521 688.5,297.5C 688.5,295.167 688.5,292.833 688.5,290.5C 688.66,288.801 688.494,287.134 688,285.5C 687.329,284.748 686.496,284.414 685.5,284.5C 680.668,272.003 672.334,262.67 660.5,256.5C 659.365,254.787 657.698,254.12 655.5,254.5C 654.5,254.5 653.5,254.5 652.5,254.5C 652.443,253.391 652.11,252.391 651.5,251.5C 646.845,250.834 642.012,250.501 637,250.5C 629.089,250.376 621.256,251.042 613.5,252.5C 591.177,253.5 568.843,253.833 546.5,253.5C 538.36,253.885 530.36,253.219 522.5,251.5C 520.833,251.5 519.167,251.5 517.5,251.5C 513.989,251.101 510.656,250.434 507.5,249.5C 505.155,246.925 502.155,245.925 498.5,246.5C 493.358,245.458 488.691,243.458 484.5,240.5C 484.027,239.094 483.027,238.427 481.5,238.5C 478.91,237.872 476.577,236.705 474.5,235C 470.47,230.679 466.137,226.846 461.5,223.5C 458.253,220.045 454.253,218.545 449.5,219C 448.748,219.671 448.414,220.504 448.5,221.5C 447.833,221.5 447.5,221.833 447.5,222.5C 447.167,222.5 446.833,222.5 446.5,222.5C 443.687,222.025 441.687,223.025 440.5,225.5C 435.509,228.673 430.843,232.34 426.5,236.5C 423.708,236.622 421.708,237.956 420.5,240.5C 416.021,243.919 411.688,247.586 407.5,251.5C 405.067,251.273 403.401,252.273 402.5,254.5C 398.896,257.975 394.896,260.975 390.5,263.5C 388.821,263.285 387.821,263.952 387.5,265.5C 387.158,266.338 386.492,266.672 385.5,266.5C 383.973,266.427 382.973,267.094 382.5,268.5C 381.341,270.25 379.674,271.25 377.5,271.5C 375.973,271.427 374.973,272.094 374.5,273.5C 371.76,275.56 368.76,277.226 365.5,278.5C 363.517,278.157 362.183,278.824 361.5,280.5C 359.11,282.02 356.443,283.02 353.5,283.5C 351.62,283.229 350.287,283.896 349.5,285.5C 348.292,286.234 346.959,286.567 345.5,286.5C 343.143,286.337 340.81,286.503 338.5,287C 337.944,287.383 337.611,287.883 337.5,288.5C 335.048,289.065 332.715,289.732 330.5,290.5C 329.609,291.11 328.609,291.443 327.5,291.5C 325.887,291.944 324.72,292.944 324,294.5C 323.5,307.496 323.333,320.496 323.5,333.5C 323.084,338.493 322.751,343.493 322.5,348.5C 320.05,352.686 318.717,357.353 318.5,362.5C 318.702,364.95 318.369,367.283 317.5,369.5C 316.883,369.611 316.383,369.944 316,370.5C 315.503,372.81 315.337,375.143 315.5,377.5C 314.641,392.816 314.308,408.149 314.5,423.5C 313.474,426.457 312.807,429.624 312.5,433C 312.307,435.008 312.974,436.508 314.5,437.5C 314.665,440.518 314.498,443.518 314,446.5C 312.846,448.957 311.512,448.957 310,446.5C 308.258,441.77 306.425,437.103 304.5,432.5C 304.969,429.607 303.969,427.607 301.5,426.5C 297.322,417.811 293.989,408.811 291.5,399.5C 291.598,397.447 290.931,395.78 289.5,394.5C 288.69,390.224 288.023,385.891 287.5,381.5C 287.663,379.143 287.497,376.81 287,374.5C 286.292,373.619 285.458,372.953 284.5,372.5C 284.64,366.464 284.307,360.464 283.5,354.5C 283.956,349.404 282.956,344.738 280.5,340.5C 280.536,331.815 280.203,323.149 279.5,314.5C 279.663,312.143 279.497,309.81 279,307.5C 278.617,306.944 278.117,306.611 277.5,306.5C 275.034,299.033 270.368,293.366 263.5,289.5C 263.027,288.094 262.027,287.427 260.5,287.5C 260.5,286.167 259.833,285.5 258.5,285.5C 255.885,280.727 255.885,276.06 258.5,271.5C 263.815,271.503 265.815,268.836 264.5,263.5C 263.922,249.666 268.589,237.999 278.5,228.5C 279.922,228.291 281.255,227.791 282.5,227C 287.434,222.574 291.767,217.74 295.5,212.5C 300.387,207.081 304.553,201.081 308,194.5C 312.474,190.206 316.474,185.539 320,180.5C 323.098,176.893 326.598,173.893 330.5,171.5C 333.187,171.664 335.854,171.497 338.5,171C 339.817,169.341 341.483,168.174 343.5,167.5C 344.429,166.311 344.762,164.978 344.5,163.5C 347.801,156.234 351.634,149.234 356,142.5C 362.833,135.667 369.667,128.833 376.5,122C 378.025,120.991 379.692,120.491 381.5,120.5C 385.155,121.075 388.155,120.075 390.5,117.5C 406.01,107.663 422.01,98.6627 438.5,90.5C 438.146,96.2038 440.813,98.0371 446.5,96C 447.381,95.2917 448.047,94.4584 448.5,93.5C 449.708,92.7659 451.041,92.4326 452.5,92.5C 455.393,92.9689 457.393,91.9689 458.5,89.5C 460.042,88.6993 461.708,88.366 463.5,88.5C 467.081,88.8624 470.081,87.8624 472.5,85.5C 475.656,84.5661 478.989,83.8994 482.5,83.5C 485.716,83.6545 488.383,82.6545 490.5,80.5C 507.835,79.2616 525.169,79.2616 542.5,80.5 Z M 502.5,126.5 C 503.167,126.5 503.833,126.5 504.5,126.5C 509.452,126.264 514.119,127.264 518.5,129.5C 522.496,131.164 526.496,132.831 530.5,134.5C 530.973,135.906 531.973,136.573 533.5,136.5C 547.415,145.616 557.582,157.95 564,173.5C 566.469,179.078 568.636,184.745 570.5,190.5C 570.66,192.199 570.494,193.866 570,195.5C 569.329,196.252 568.496,196.586 567.5,196.5C 566.167,195.833 564.833,195.167 563.5,194.5C 553.223,174.018 537.223,160.018 515.5,152.5C 513.11,150.98 510.443,149.98 507.5,149.5C 502.512,148.595 497.512,147.595 492.5,146.5C 483.504,143.888 474.504,143.888 465.5,146.5C 459.252,147.892 452.918,148.558 446.5,148.5C 442.215,149.262 438.215,150.595 434.5,152.5C 431.721,152.279 429.054,152.612 426.5,153.5C 423.933,153.721 421.599,154.388 419.5,155.5C 418.833,155.5 418.167,155.5 417.5,155.5C 416.909,154.849 416.243,154.182 415.5,153.5C 416.26,151.64 417.26,149.973 418.5,148.5C 421.032,147.404 423.365,146.071 425.5,144.5C 427.153,144.34 428.486,143.674 429.5,142.5C 433.354,141.07 437.021,139.403 440.5,137.5C 442.5,136.833 444.5,136.167 446.5,135.5C 448.167,134.833 449.833,134.167 451.5,133.5C 453.574,132.486 455.574,131.486 457.5,130.5C 458.833,130.5 460.167,130.5 461.5,130.5C 462.167,130.167 462.833,129.833 463.5,129.5C 465.403,129.204 467.07,128.537 468.5,127.5C 471.786,126.793 475.119,126.46 478.5,126.5C 479.167,126.5 479.833,126.5 480.5,126.5C 487.837,125.24 495.171,125.24 502.5,126.5 Z M 564.5,134.5 C 565.833,134.5 567.167,134.5 568.5,134.5C 568.833,134.5 569.167,134.5 569.5,134.5C 569.973,135.906 570.973,136.573 572.5,136.5C 573.262,138.262 574.596,139.262 576.5,139.5C 576.973,140.906 577.973,141.573 579.5,141.5C 591.362,150.861 599.528,162.861 604,177.5C 605.182,192.793 600.015,205.46 588.5,215.5C 587.833,215.5 587.167,215.5 586.5,215.5C 585.89,214.609 585.557,213.609 585.5,212.5C 585.5,211.833 585.5,211.167 585.5,210.5C 586.323,207.539 586.99,204.539 587.5,201.5C 588.935,198.45 589.602,195.117 589.5,191.5C 589.657,188.186 588.991,185.186 587.5,182.5C 586.847,175.042 584.681,168.042 581,161.5C 576.128,153.085 570.295,145.418 563.5,138.5C 563.433,137.041 563.766,135.708 564.5,134.5 Z M 630.5,170.5 C 633.873,175.281 635.873,180.614 636.5,186.5C 635.514,188.426 634.514,190.426 633.5,192.5C 632.5,193.833 631.5,195.167 630.5,196.5C 627.5,200.167 624.167,203.5 620.5,206.5C 615.793,210.51 611.126,214.51 606.5,218.5C 604.126,219.686 601.792,219.686 599.5,218.5C 599.517,216.435 599.85,214.435 600.5,212.5C 603.008,208.818 605.008,204.818 606.5,200.5C 607.674,199.486 608.34,198.153 608.5,196.5C 609.738,194.786 610.405,192.786 610.5,190.5C 612.128,187.512 614.461,186.512 617.5,187.5C 618.978,187.762 620.311,187.429 621.5,186.5C 622.482,183.904 623.149,181.238 623.5,178.5C 624.537,177.07 625.204,175.403 625.5,173.5C 626.922,172.075 628.589,171.075 630.5,170.5 Z M 425.5,178.5 C 430.167,178.5 434.833,178.5 439.5,178.5C 441.167,178.5 442.833,178.5 444.5,178.5C 446.649,179.736 448.982,180.736 451.5,181.5C 461.988,186.578 471.655,192.911 480.5,200.5C 481.167,201.5 481.833,202.5 482.5,203.5C 483.684,204.688 483.684,205.855 482.5,207C 480.115,207.556 477.782,207.39 475.5,206.5C 471.341,204.867 467.008,203.867 462.5,203.5C 457.599,201.88 452.432,200.88 447,200.5C 441.898,200.887 437.064,201.887 432.5,203.5C 427.99,203.884 423.657,204.551 419.5,205.5C 417.102,205.259 415.102,205.926 413.5,207.5C 410.733,207.858 408.067,208.525 405.5,209.5C 402.982,210.264 400.649,211.264 398.5,212.5C 393.163,214.168 387.829,215.835 382.5,217.5C 379.982,218.264 377.649,219.264 375.5,220.5C 373.784,220.629 372.117,220.962 370.5,221.5C 368.426,222.514 366.426,223.514 364.5,224.5C 362.585,224.216 360.919,224.549 359.5,225.5C 358.833,225.5 358.167,225.5 357.5,225.5C 356.833,225.5 356.167,225.5 355.5,225.5C 354.167,225.5 352.833,225.5 351.5,225.5C 351.5,223.833 351.5,222.167 351.5,220.5C 352.71,220.068 353.71,219.401 354.5,218.5C 356.153,218.34 357.486,217.674 358.5,216.5C 360.553,216.598 362.22,215.931 363.5,214.5C 365.153,214.34 366.486,213.674 367.5,212.5C 369.153,212.34 370.486,211.674 371.5,210.5C 372.492,210.672 373.158,210.338 373.5,209.5C 375.284,209.107 376.95,208.441 378.5,207.5C 382.007,205.246 385.673,203.246 389.5,201.5C 391.368,200.737 393.035,199.737 394.5,198.5C 395.609,198.443 396.609,198.11 397.5,197.5C 399.368,196.737 401.035,195.737 402.5,194.5C 403.609,194.443 404.609,194.11 405.5,193.5C 406.71,193.068 407.71,192.401 408.5,191.5C 411.814,190.59 412.148,189.257 409.5,187.5C 409.5,186.833 409.167,186.5 408.5,186.5C 408.527,184.801 409.194,183.467 410.5,182.5C 412.819,182.008 414.819,181.008 416.5,179.5C 419.455,178.841 422.455,178.508 425.5,178.5 Z M 663.5,190.5 C 664.873,190.343 666.207,190.51 667.5,191C 670.059,192.777 672.726,194.277 675.5,195.5C 677.515,196.924 679.848,197.59 682.5,197.5C 684.042,198.301 685.708,198.634 687.5,198.5C 690.447,199.781 692.781,201.781 694.5,204.5C 694.532,206.619 693.532,207.952 691.5,208.5C 691.167,208.5 690.833,208.5 690.5,208.5C 688.5,208.5 686.5,208.5 684.5,208.5C 681.785,206.928 678.785,205.928 675.5,205.5C 671.873,204.754 668.206,204.087 664.5,203.5C 663.205,202.512 661.872,201.512 660.5,200.5C 659.058,199.18 658.392,197.514 658.5,195.5C 659.93,193.614 661.597,191.947 663.5,190.5 Z M 359.5,234.5 C 361.167,234.5 362.833,234.5 364.5,234.5C 365.167,234.5 365.833,234.5 366.5,234.5C 367.234,235.708 367.567,237.041 367.5,238.5C 367.167,239.167 366.833,239.833 366.5,240.5C 355.128,247.017 343.128,252.183 330.5,256C 326.514,256.499 322.514,256.666 318.5,256.5C 316.574,255.514 314.574,254.514 312.5,253.5C 310.833,252.833 309.167,252.167 307.5,251.5C 307.5,250.833 307.5,250.167 307.5,249.5C 307.5,248.5 307.5,247.5 307.5,246.5C 308.833,246.5 310.167,246.5 311.5,246.5C 316.363,246.819 321.03,246.486 325.5,245.5C 328.292,245.378 330.292,244.044 331.5,241.5C 333.113,240.308 334.78,239.308 336.5,238.5C 340.167,238.5 343.833,238.5 347.5,238.5C 351.785,237.738 355.785,236.405 359.5,234.5 Z M 385.5,238.5 C 387.698,238.12 389.365,238.787 390.5,240.5C 389.55,243.115 387.883,245.115 385.5,246.5C 372.172,257.807 357.505,267.141 341.5,274.5C 339.847,274.66 338.514,275.326 337.5,276.5C 335.901,276.232 334.568,276.566 333.5,277.5C 330.843,277.935 328.509,278.935 326.5,280.5C 325.5,280.5 324.5,280.5 323.5,280.5C 317.491,280.666 311.491,280.499 305.5,280C 303.807,279.153 302.14,278.32 300.5,277.5C 294.887,274.887 290.554,270.887 287.5,265.5C 287.5,265.167 287.5,264.833 287.5,264.5C 288.5,264.167 289.167,263.5 289.5,262.5C 289.833,262.5 290.167,262.5 290.5,262.5C 291.833,262.5 293.167,262.5 294.5,262.5C 295.93,263.537 297.597,264.204 299.5,264.5C 307.615,267.309 315.615,266.975 323.5,263.5C 324.791,263.737 325.791,263.404 326.5,262.5C 329.237,262.599 331.904,262.265 334.5,261.5C 337.018,260.736 339.351,259.736 341.5,258.5C 343.216,258.371 344.883,258.038 346.5,257.5C 348.368,256.737 350.035,255.737 351.5,254.5C 353.553,254.598 355.22,253.931 356.5,252.5C 358.403,252.204 360.07,251.537 361.5,250.5C 363.153,250.34 364.486,249.674 365.5,248.5C 367.153,248.34 368.486,247.674 369.5,246.5C 371.153,246.34 372.486,245.674 373.5,244.5C 375.153,244.34 376.486,243.674 377.5,242.5C 378.609,242.443 379.609,242.11 380.5,241.5C 382.368,240.737 384.035,239.737 385.5,238.5 Z"/></g>
<g><path style="opacity:1" fill="#313131" d="M 542.5,80.5 C 546.116,80.8993 549.45,81.8993 552.5,83.5C 550.143,83.6633 547.81,83.4966 545.5,83C 543.881,82.7645 542.881,81.9311 542.5,80.5 Z"/></g>
<g><path style="opacity:0.969" fill="#3d3d3d" d="M 490.5,80.5 C 488.383,82.6545 485.716,83.6545 482.5,83.5C 484.848,81.9028 487.514,80.9028 490.5,80.5 Z"/></g>
<g><path style="opacity:1" fill="#2e2e2e" d="M 472.5,85.5 C 470.081,87.8624 467.081,88.8624 463.5,88.5C 466.145,86.6896 469.145,85.6896 472.5,85.5 Z"/></g>
<g><path style="opacity:0.54" fill="#373737" d="M 562.5,85.5 C 565.443,85.9802 568.11,86.9802 570.5,88.5C 567.169,88.9819 564.503,87.9819 562.5,85.5 Z"/></g>
<g><path style="opacity:0.992" fill="#303030" d="M 574.5,89.5 C 577.157,89.9348 579.491,90.9348 581.5,92.5C 578.539,92.5358 576.206,91.5358 574.5,89.5 Z"/></g>
<g><path style="opacity:0.902" fill="#363636" d="M 438.5,90.5 C 439.167,90.5 439.5,90.8333 439.5,91.5C 439.33,92.8221 439.663,93.9887 440.5,95C 442.387,95.7796 444.054,95.6129 445.5,94.5C 446.391,93.8902 447.391,93.5569 448.5,93.5C 448.047,94.4584 447.381,95.2917 446.5,96C 440.813,98.0371 438.146,96.2038 438.5,90.5 Z"/></g>
<g><path style="opacity:0.788" fill="#2e2e2e" d="M 458.5,89.5 C 457.393,91.9689 455.393,92.9689 452.5,92.5C 454.25,91.1302 456.25,90.1302 458.5,89.5 Z"/></g>
<g><path style="opacity:0.631" fill="#7a7a7a" d="M 439.5,91.5 C 441.053,93.385 443.053,94.385 445.5,94.5C 444.054,95.6129 442.387,95.7796 440.5,95C 439.663,93.9887 439.33,92.8221 439.5,91.5 Z"/></g>
<g><path style="opacity:0.004" fill="#343434" d="M 585.5,93.5 C 587.368,94.2632 589.035,95.2632 590.5,96.5C 587.715,97.0838 586.048,96.0838 585.5,93.5 Z"/></g>
<g><path style="opacity:0.941" fill="#353535" d="M 615.5,112.5 C 618.784,114.117 621.451,116.45 623.5,119.5C 620.19,117.854 617.523,115.52 615.5,112.5 Z"/></g>
<g><path style="opacity:0.776" fill="#333333" d="M 390.5,117.5 C 388.155,120.075 385.155,121.075 381.5,120.5C 384.341,119.331 387.341,118.331 390.5,117.5 Z"/></g>
<g><path style="opacity:0.922" fill="#2a2a2a" d="M 623.5,119.5 C 626.243,121.239 628.243,123.573 629.5,126.5C 626.757,124.761 624.757,122.427 623.5,119.5 Z"/></g>
<g><path style="opacity:1" fill="#181818" d="M 518.5,129.5 C 514.119,127.264 509.452,126.264 504.5,126.5C 504.586,125.504 504.252,124.671 503.5,124C 495.5,123.333 487.5,123.333 479.5,124C 478.748,124.671 478.414,125.504 478.5,126.5C 475.119,126.46 471.786,126.793 468.5,127.5C 466.302,127.12 464.635,127.787 463.5,129.5C 462.833,129.833 462.167,130.167 461.5,130.5C 461.539,129.417 461.873,128.417 462.5,127.5C 466.281,126.548 470.114,125.881 474,125.5C 475.955,125.359 477.455,124.526 478.5,123C 487.167,122.333 495.833,122.333 504.5,123C 504.957,123.414 505.291,123.914 505.5,124.5C 509.467,125.472 513.467,126.305 517.5,127C 518.252,127.671 518.586,128.504 518.5,129.5 Z"/></g>
<g><path style="opacity:1" fill="#373737" d="M 504.5,126.5 C 503.833,126.5 503.167,126.5 502.5,126.5C 499.232,125.178 495.565,124.511 491.5,124.5C 487.435,124.511 483.768,125.178 480.5,126.5C 479.833,126.5 479.167,126.5 478.5,126.5C 478.414,125.504 478.748,124.671 479.5,124C 487.5,123.333 495.5,123.333 503.5,124C 504.252,124.671 504.586,125.504 504.5,126.5 Z"/></g>
<g><path style="opacity:0.373" fill="#656565" d="M 502.5,126.5 C 495.171,125.24 487.837,125.24 480.5,126.5C 483.768,125.178 487.435,124.511 491.5,124.5C 495.565,124.511 499.232,125.178 502.5,126.5 Z"/></g>
<g><path style="opacity:0.663" fill="#505050" d="M 468.5,127.5 C 467.07,128.537 465.403,129.204 463.5,129.5C 464.635,127.787 466.302,127.12 468.5,127.5 Z"/></g>
<g><path style="opacity:0.608" fill="#424242" d="M 457.5,130.5 C 455.574,131.486 453.574,132.486 451.5,133.5C 451.414,132.504 451.748,131.671 452.5,131C 454.134,130.506 455.801,130.34 457.5,130.5 Z"/></g>
<g><path style="opacity:0.933" fill="#525252" d="M 568.5,134.5 C 567.167,134.5 565.833,134.5 564.5,134.5C 562.824,135.183 562.157,136.517 562.5,138.5C 561.539,136.735 561.205,134.735 561.5,132.5C 564.152,132.41 566.485,133.076 568.5,134.5 Z"/></g>
<g><path style="opacity:0.863" fill="#3d3d3d" d="M 569.5,134.5 C 571.027,134.427 572.027,135.094 572.5,136.5C 570.973,136.573 569.973,135.906 569.5,134.5 Z"/></g>
<g><path style="opacity:0.875" fill="#3f3f3f" d="M 530.5,134.5 C 532.027,134.427 533.027,135.094 533.5,136.5C 531.973,136.573 530.973,135.906 530.5,134.5 Z"/></g>
<g><path style="opacity:0.573" fill="#8f8f8f" d="M 564.5,134.5 C 563.766,135.708 563.433,137.041 563.5,138.5C 563.167,138.5 562.833,138.5 562.5,138.5C 562.157,136.517 562.824,135.183 564.5,134.5 Z"/></g>
<g><path style="opacity:0.176" fill="#505050" d="M 446.5,135.5 C 444.5,136.167 442.5,136.833 440.5,137.5C 441.92,134.651 443.92,133.984 446.5,135.5 Z"/></g>
<g><path style="opacity:0.965" fill="#3c3c3c" d="M 576.5,139.5 C 578.027,139.427 579.027,140.094 579.5,141.5C 577.973,141.573 576.973,140.906 576.5,139.5 Z"/></g>
<g><path style="opacity:0.153" fill="#5a5a5a" d="M 429.5,142.5 C 428.486,143.674 427.153,144.34 425.5,144.5C 426.287,142.896 427.62,142.229 429.5,142.5 Z"/></g>
<g><path style="opacity:0.933" fill="#2f2f2f" d="M 640.5,141.5 C 642.262,142.262 643.262,143.596 643.5,145.5C 641.738,144.738 640.738,143.404 640.5,141.5 Z"/></g>
<g><path style="opacity:0.951" fill="#595959" d="M 492.5,146.5 C 483.5,146.5 474.5,146.5 465.5,146.5C 474.504,143.888 483.504,143.888 492.5,146.5 Z"/></g>
<g><path style="opacity:0.98" fill="#313131" d="M 446.5,148.5 C 446.047,149.458 445.381,150.292 444.5,151C 441.173,151.61 437.839,152.11 434.5,152.5C 438.215,150.595 442.215,149.262 446.5,148.5 Z"/></g>
<g><path style="opacity:0.861" fill="#232323" d="M 507.5,149.5 C 510.443,149.98 513.11,150.98 515.5,152.5C 512.284,152.655 509.617,151.655 507.5,149.5 Z"/></g>
<g><path style="opacity:1" fill="#2a2a2a" d="M 415.5,150.5 C 413.721,151.67 412.721,153.336 412.5,155.5C 413.833,155.5 415.167,155.5 416.5,155.5C 413.851,158.5 411.851,158.166 410.5,154.5C 411.15,151.996 412.817,150.663 415.5,150.5 Z"/></g>
<g><path style="opacity:0.612" fill="#787878" d="M 418.5,148.5 C 417.26,149.973 416.26,151.64 415.5,153.5C 416.243,154.182 416.909,154.849 417.5,155.5C 417.167,155.5 416.833,155.5 416.5,155.5C 415.167,155.5 413.833,155.5 412.5,155.5C 412.721,153.336 413.721,151.67 415.5,150.5C 415.973,149.094 416.973,148.427 418.5,148.5 Z"/></g>
<g><path style="opacity:1" fill="#2b2b2b" d="M 426.5,153.5 C 424.721,155.344 422.388,156.01 419.5,155.5C 421.599,154.388 423.933,153.721 426.5,153.5 Z"/></g>
<g><path style="opacity:0.894" fill="#444444" d="M 654.5,158.5 C 655.803,160.142 657.136,161.809 658.5,163.5C 655.09,163.616 653.756,161.95 654.5,158.5 Z"/></g>
<g><path style="opacity:0.953" fill="#2b2b2b" d="M 344.5,163.5 C 344.762,164.978 344.429,166.311 343.5,167.5C 341.483,168.174 339.817,169.341 338.5,171C 335.854,171.497 333.187,171.664 330.5,171.5C 333.831,169.394 337.498,167.728 341.5,166.5C 342.288,165.23 343.288,164.23 344.5,163.5 Z"/></g>
<g><path style="opacity:0.979" fill="#202020" d="M 662.5,164.5 C 665.682,165.594 668.682,166.928 671.5,168.5C 668.5,168.5 665.5,168.5 662.5,168.5C 662.5,167.167 662.5,165.833 662.5,164.5 Z"/></g>
<g><path style="opacity:0.878" fill="#404040" d="M 677.5,169.5 C 679.153,169.66 680.486,170.326 681.5,171.5C 679.62,171.771 678.287,171.104 677.5,169.5 Z"/></g>
<g><path style="opacity:1" fill="#212121" d="M 625.5,170.5 C 625.5,171.5 625.5,172.5 625.5,173.5C 625.204,175.403 624.537,177.07 623.5,178.5C 623.337,176.143 623.503,173.81 624,171.5C 624.383,170.944 624.883,170.611 625.5,170.5 Z"/></g>
<g><path style="opacity:0.843" fill="#717171" d="M 630.5,170.5 C 628.589,171.075 626.922,172.075 625.5,173.5C 625.5,172.5 625.5,171.5 625.5,170.5C 627.284,169.28 628.95,169.28 630.5,170.5 Z"/></g>
<g><path style="opacity:1" fill="#2a2a2a" d="M 439.5,178.5 C 434.833,178.5 430.167,178.5 425.5,178.5C 430.199,174.587 434.865,174.587 439.5,178.5 Z"/></g>
<g><path style="opacity:0.98" fill="#383838" d="M 691.5,173.5 C 692.338,173.842 692.672,174.508 692.5,175.5C 689.224,176.122 687.891,178.122 688.5,181.5C 686.761,177.919 687.761,175.252 691.5,173.5 Z"/></g>
<g><path style="opacity:0.945" fill="#636363" d="M 692.5,175.5 C 692.5,176.167 692.5,176.833 692.5,177.5C 689.028,178.577 688.695,180.244 691.5,182.5C 692.167,182.5 692.5,182.833 692.5,183.5C 690.517,183.843 689.183,183.176 688.5,181.5C 687.891,178.122 689.224,176.122 692.5,175.5 Z"/></g>
<g><path style="opacity:0.996" fill="#383838" d="M 444.5,178.5 C 447.577,178.179 449.91,179.179 451.5,181.5C 448.982,180.736 446.649,179.736 444.5,178.5 Z"/></g>
<g><path style="opacity:0.722" fill="#adadad" d="M 692.5,177.5 C 691.962,179.117 691.629,180.784 691.5,182.5C 688.695,180.244 689.028,178.577 692.5,177.5 Z"/></g>
<g><path style="opacity:0.078" fill="#5c5c5c" d="M 416.5,179.5 C 414.819,181.008 412.819,182.008 410.5,182.5C 411.607,180.031 413.607,179.031 416.5,179.5 Z"/></g>
<g><path style="opacity:0.745" fill="#808080" d="M 410.5,182.5 C 409.194,183.467 408.527,184.801 408.5,186.5C 405.433,186.879 404.433,185.879 405.5,183.5C 406.919,182.549 408.585,182.216 410.5,182.5 Z"/></g>
<g><path style="opacity:0.976" fill="#494949" d="M 405.5,183.5 C 404.433,185.879 405.433,186.879 408.5,186.5C 409.167,186.5 409.5,186.833 409.5,187.5C 407.167,187.5 404.833,187.5 402.5,187.5C 402.088,185.027 403.088,183.694 405.5,183.5 Z"/></g>
<g><path style="opacity:0.898" fill="#585858" d="M 617.5,187.5 C 614.461,186.512 612.128,187.512 610.5,190.5C 610.083,185.932 612.083,184.432 616.5,186C 617.056,186.383 617.389,186.883 617.5,187.5 Z"/></g>
<g><path style="opacity:0.812" fill="#424242" d="M 698.5,185.5 C 699.71,185.932 700.71,186.599 701.5,187.5C 699.821,187.715 698.821,187.048 698.5,185.5 Z"/></g>
<g><path style="opacity:0.822" fill="#222222" d="M 636.5,186.5 C 636.969,189.393 635.969,191.393 633.5,192.5C 634.514,190.426 635.514,188.426 636.5,186.5 Z"/></g>
<g><path style="opacity:0.854" fill="#5d5d5d" d="M 587.5,182.5 C 588.991,185.186 589.657,188.186 589.5,191.5C 589.602,195.117 588.935,198.45 587.5,201.5C 587.5,195.167 587.5,188.833 587.5,182.5 Z"/></g>
<g><path style="opacity:0.882" fill="#303030" d="M 707.5,190.5 C 708.71,190.932 709.71,191.599 710.5,192.5C 708.821,192.715 707.821,192.048 707.5,190.5 Z"/></g>
<g><path style="opacity:0.529" fill="#414141" d="M 408.5,191.5 C 407.71,192.401 406.71,193.068 405.5,193.5C 405.821,191.952 406.821,191.285 408.5,191.5 Z"/></g>
<g><path style="opacity:0.941" fill="#393939" d="M 663.5,190.5 C 661.597,191.947 659.93,193.614 658.5,195.5C 658.162,191.849 659.828,190.183 663.5,190.5 Z"/></g>
<g><path style="opacity:0.776" fill="#424242" d="M 402.5,194.5 C 401.035,195.737 399.368,196.737 397.5,197.5C 398.048,194.916 399.715,193.916 402.5,194.5 Z"/></g>
<g><path style="opacity:0.878" fill="#313131" d="M 563.5,194.5 C 564.833,195.167 566.167,195.833 567.5,196.5C 567.5,196.833 567.5,197.167 567.5,197.5C 565.368,197.446 564.035,196.446 563.5,194.5 Z"/></g>
<g><path style="opacity:0.851" fill="#6a6a6a" d="M 570.5,190.5 C 571.622,192.288 571.789,194.288 571,196.5C 569.989,197.337 568.822,197.67 567.5,197.5C 567.5,197.167 567.5,196.833 567.5,196.5C 568.496,196.586 569.329,196.252 570,195.5C 570.494,193.866 570.66,192.199 570.5,190.5 Z"/></g>
<g><path style="opacity:0.918" fill="#4c4c4c" d="M 675.5,195.5 C 677.5,195.5 679.5,195.5 681.5,195.5C 681.833,196.167 682.167,196.833 682.5,197.5C 679.848,197.59 677.515,196.924 675.5,195.5 Z"/></g>
<g><path style="opacity:0.851" fill="#2a2a2a" d="M 681.5,195.5 C 683.544,196.508 685.544,197.508 687.5,198.5C 685.708,198.634 684.042,198.301 682.5,197.5C 682.167,196.833 681.833,196.167 681.5,195.5 Z"/></g>
<g><path style="opacity:0.816" fill="#3c3c3c" d="M 608.5,196.5 C 608.34,198.153 607.674,199.486 606.5,200.5C 606.229,198.62 606.896,197.287 608.5,196.5 Z"/></g>
<g><path style="opacity:0.459" fill="#313131" d="M 714.5,195.5 C 717.764,197.094 720.431,199.427 722.5,202.5C 719.236,200.906 716.569,198.573 714.5,195.5 Z"/></g>
<g><path style="opacity:0.871" fill="#3b3b3b" d="M 394.5,198.5 C 393.035,199.737 391.368,200.737 389.5,201.5C 390.048,198.916 391.715,197.916 394.5,198.5 Z"/></g>
<g><path style="opacity:0.988" fill="#2d2d2d" d="M 480.5,200.5 C 482.404,200.738 483.738,201.738 484.5,203.5C 483.833,203.5 483.167,203.5 482.5,203.5C 481.833,202.5 481.167,201.5 480.5,200.5 Z"/></g>
<g><path style="opacity:0.933" fill="#4f4f4f" d="M 462.5,203.5 C 452.5,203.5 442.5,203.5 432.5,203.5C 437.064,201.887 441.898,200.887 447,200.5C 452.432,200.88 457.599,201.88 462.5,203.5 Z"/></g>
<g><path style="opacity:0.855" fill="#434343" d="M 660.5,200.5 C 661.872,201.512 663.205,202.512 664.5,203.5C 662.027,203.912 660.694,202.912 660.5,200.5 Z"/></g>
<g><path style="opacity:0.957" fill="#292929" d="M 630.5,196.5 C 628.798,201.535 625.465,204.869 620.5,206.5C 624.167,203.5 627.5,200.167 630.5,196.5 Z"/></g>
<g><path style="opacity:0.929" fill="#3d3d3d" d="M 378.5,207.5 C 376.95,208.441 375.284,209.107 373.5,209.5C 374.544,206.8 376.21,206.133 378.5,207.5 Z"/></g>
<g><path style="opacity:1" fill="#363636" d="M 419.5,205.5 C 417.898,207.074 415.898,207.741 413.5,207.5C 415.102,205.926 417.102,205.259 419.5,205.5 Z"/></g>
<g><path style="opacity:0.969" fill="#333333" d="M 675.5,205.5 C 678.785,205.928 681.785,206.928 684.5,208.5C 682.143,208.663 679.81,208.497 677.5,208C 676.619,207.292 675.953,206.458 675.5,205.5 Z"/></g>
<g><path style="opacity:0.57" fill="#484848" d="M 482.5,203.5 C 483.167,203.5 483.833,203.5 484.5,203.5C 485.176,207.49 483.51,209.157 479.5,208.5C 477.667,208.415 476.334,207.748 475.5,206.5C 477.782,207.39 480.115,207.556 482.5,207C 483.684,205.855 483.684,204.688 482.5,203.5 Z"/></g>
<g><path style="opacity:0.882" fill="#5d5d5d" d="M 694.5,204.5 C 697.048,206.038 697.048,207.704 694.5,209.5C 693.209,209.737 692.209,209.404 691.5,208.5C 693.532,207.952 694.532,206.619 694.5,204.5 Z"/></g>
<g><path style="opacity:0.345" fill="#323232" d="M 371.5,210.5 C 370.486,211.674 369.153,212.34 367.5,212.5C 368.183,210.824 369.517,210.157 371.5,210.5 Z"/></g>
<g><path style="opacity:1" fill="#272727" d="M 690.5,208.5 C 690.833,208.5 691.167,208.5 691.5,208.5C 692.209,209.404 693.209,209.737 694.5,209.5C 693.817,211.176 692.483,211.843 690.5,211.5C 690.5,210.5 690.5,209.5 690.5,208.5 Z"/></g>
<g><path style="opacity:0.865" fill="#262626" d="M 405.5,209.5 C 403.824,211.834 401.491,212.834 398.5,212.5C 400.649,211.264 402.982,210.264 405.5,209.5 Z"/></g>
<g><path style="opacity:0.369" fill="#a4a4a4" d="M 585.5,212.5 C 585.557,213.609 585.89,214.609 586.5,215.5C 584.448,214.947 584.115,213.947 585.5,212.5 Z"/></g>
<g><path style="opacity:0.792" fill="#5e5e5e" d="M 600.5,212.5 C 599.85,214.435 599.517,216.435 599.5,218.5C 598.861,217.903 598.528,217.07 598.5,216C 598.387,214.301 599.053,213.134 600.5,212.5 Z"/></g>
<g><path style="opacity:0.682" fill="#636363" d="M 726.5,211.5 C 726.5,213.833 726.5,216.167 726.5,218.5C 723.966,216.25 723.966,213.916 726.5,211.5 Z"/></g>
<g><path style="opacity:0.855" fill="#4d4d4d" d="M 363.5,214.5 C 362.22,215.931 360.553,216.598 358.5,216.5C 359.635,214.787 361.302,214.12 363.5,214.5 Z"/></g>
<g><path style="opacity:0.773" fill="#676767" d="M 585.5,210.5 C 585.5,211.167 585.5,211.833 585.5,212.5C 584.115,213.947 584.448,214.947 586.5,215.5C 587.167,215.5 587.833,215.5 588.5,215.5C 588.5,216.167 588.167,216.5 587.5,216.5C 586.167,216.5 584.833,216.5 583.5,216.5C 583.5,214.833 583.5,213.167 583.5,211.5C 584.167,211.167 584.833,210.833 585.5,210.5 Z"/></g>
<g><path style="opacity:0.996" fill="#262626" d="M 583.5,211.5 C 583.5,213.167 583.5,214.833 583.5,216.5C 584.833,216.5 586.167,216.5 587.5,216.5C 586.22,217.931 584.553,218.598 582.5,218.5C 582.198,215.941 582.532,213.607 583.5,211.5 Z"/></g>
<g><path style="opacity:0.878" fill="#3e3e3e" d="M 354.5,218.5 C 353.71,219.401 352.71,220.068 351.5,220.5C 350.5,220.833 349.833,221.5 349.5,222.5C 348.28,224.05 348.28,225.716 349.5,227.5C 349.167,227.5 348.833,227.5 348.5,227.5C 346.305,221.992 348.305,218.992 354.5,218.5 Z"/></g>
<g><path style="opacity:0.875" fill="#313131" d="M 382.5,217.5 C 380.964,220.092 378.631,221.092 375.5,220.5C 377.649,219.264 379.982,218.264 382.5,217.5 Z"/></g>
<g><path style="opacity:0.314" fill="#3d3d3d" d="M 599.5,218.5 C 601.792,219.686 604.126,219.686 606.5,218.5C 605.688,219.993 604.355,220.66 602.5,220.5C 600.97,220.36 599.97,219.693 599.5,218.5 Z"/></g>
<g><path style="opacity:0.886" fill="#393939" d="M 295.5,212.5 C 291.767,217.74 287.434,222.574 282.5,227C 281.255,227.791 279.922,228.291 278.5,228.5C 284.14,223.195 289.807,217.861 295.5,212.5 Z"/></g>
<g><path style="opacity:0.976" fill="#525252" d="M 455.5,222.5 C 452.833,222.5 450.167,222.5 447.5,222.5C 447.5,221.833 447.833,221.5 448.5,221.5C 451.31,219.822 453.643,220.155 455.5,222.5 Z"/></g>
<g><path style="opacity:0.835" fill="#2f2f2f" d="M 461.5,223.5 C 459.5,223.167 457.5,222.833 455.5,222.5C 453.643,220.155 451.31,219.822 448.5,221.5C 448.414,220.504 448.748,219.671 449.5,219C 454.253,218.545 458.253,220.045 461.5,223.5 Z"/></g>
<g><path style="opacity:0.859" fill="#9e9e9e" d="M 351.5,220.5 C 351.5,222.167 351.5,223.833 351.5,225.5C 352.833,225.5 354.167,225.5 355.5,225.5C 354.054,226.613 352.387,226.78 350.5,226C 349.663,224.989 349.33,223.822 349.5,222.5C 349.833,221.5 350.5,220.833 351.5,220.5 Z"/></g>
<g><path style="opacity:0.808" fill="#3a3a3a" d="M 370.5,221.5 C 369.393,223.969 367.393,224.969 364.5,224.5C 366.426,223.514 368.426,222.514 370.5,221.5 Z"/></g>
<g><path style="opacity:0.012" fill="#565656" d="M 446.5,222.5 C 444.544,223.492 442.544,224.492 440.5,225.5C 441.687,223.025 443.687,222.025 446.5,222.5 Z"/></g>
<g><path style="opacity:0.745" fill="#595959" d="M 349.5,222.5 C 349.33,223.822 349.663,224.989 350.5,226C 352.387,226.78 354.054,226.613 355.5,225.5C 356.167,225.5 356.833,225.5 357.5,225.5C 357.389,226.117 357.056,226.617 356.5,227C 354.19,227.497 351.857,227.663 349.5,227.5C 348.28,225.716 348.28,224.05 349.5,222.5 Z"/></g>
<g><path style="opacity:1" fill="#1a1a1a" d="M 357.5,225.5 C 358.167,225.5 358.833,225.5 359.5,225.5C 359.586,226.496 359.252,227.329 358.5,228C 354.973,228.808 351.64,228.641 348.5,227.5C 348.833,227.5 349.167,227.5 349.5,227.5C 351.857,227.663 354.19,227.497 356.5,227C 357.056,226.617 357.389,226.117 357.5,225.5 Z"/></g>
<g><path style="opacity:0.975" fill="#484848" d="M 364.5,234.5 C 364.842,233.662 365.508,233.328 366.5,233.5C 367.833,233.5 369.167,233.5 370.5,233.5C 370.784,235.415 370.451,237.081 369.5,238.5C 369.5,237.167 369.5,235.833 369.5,234.5C 368.5,234.5 367.5,234.5 366.5,234.5C 365.833,234.5 365.167,234.5 364.5,234.5 Z"/></g>
<g><path style="opacity:0.957" fill="#464646" d="M 359.5,234.5 C 355.785,236.405 351.785,237.738 347.5,238.5C 347.414,237.504 347.748,236.671 348.5,236C 352.114,235.064 355.78,234.564 359.5,234.5 Z"/></g>
<g><path style="opacity:0.89" fill="#6f6f6f" d="M 366.5,234.5 C 367.5,234.5 368.5,234.5 369.5,234.5C 369.5,235.833 369.5,237.167 369.5,238.5C 368.833,238.5 368.167,238.5 367.5,238.5C 367.567,237.041 367.234,235.708 366.5,234.5 Z"/></g>
<g><path style="opacity:0.957" fill="#4c4c4c" d="M 392.5,239.5 C 392.5,238.5 392.5,237.5 392.5,236.5C 390.784,236.629 389.117,236.962 387.5,237.5C 388.99,235.72 390.99,235.054 393.5,235.5C 393.768,237.099 393.434,238.432 392.5,239.5 Z"/></g>
<g><path style="opacity:0.906" fill="#7a7a7a" d="M 392.5,239.5 C 392.5,239.833 392.5,240.167 392.5,240.5C 391.833,240.5 391.167,240.5 390.5,240.5C 389.365,238.787 387.698,238.12 385.5,238.5C 385.842,237.662 386.508,237.328 387.5,237.5C 389.117,236.962 390.784,236.629 392.5,236.5C 392.5,237.5 392.5,238.5 392.5,239.5 Z"/></g>
<g><path style="opacity:0.004" fill="#414141" d="M 336.5,238.5 C 334.78,239.308 333.113,240.308 331.5,241.5C 332.048,238.916 333.715,237.916 336.5,238.5 Z"/></g>
<g><path style="opacity:1" fill="#222222" d="M 366.5,233.5 C 368.265,232.539 370.265,232.205 372.5,232.5C 373.815,237.836 371.815,240.503 366.5,240.5C 366.833,239.833 367.167,239.167 367.5,238.5C 368.167,238.5 368.833,238.5 369.5,238.5C 370.451,237.081 370.784,235.415 370.5,233.5C 369.167,233.5 367.833,233.5 366.5,233.5 Z"/></g>
<g><path style="opacity:0.725" fill="#535353" d="M 385.5,238.5 C 384.035,239.737 382.368,240.737 380.5,241.5C 381.3,239.259 382.966,238.259 385.5,238.5 Z"/></g>
<g><path style="opacity:0.361" fill="#4b4b4b" d="M 426.5,236.5 C 424.777,238.218 422.777,239.551 420.5,240.5C 421.708,237.956 423.708,236.622 426.5,236.5 Z"/></g>
<g><path style="opacity:0.871" fill="#393939" d="M 481.5,238.5 C 483.027,238.427 484.027,239.094 484.5,240.5C 482.973,240.573 481.973,239.906 481.5,238.5 Z"/></g>
<g><path style="opacity:0.949" fill="#303030" d="M 312.5,244.5 C 310.167,244.5 307.833,244.5 305.5,244.5C 305.5,246.167 305.5,247.833 305.5,249.5C 303.353,248.068 303.02,246.235 304.5,244C 307.367,243.199 310.034,243.366 312.5,244.5 Z"/></g>
<g><path style="opacity:0.251" fill="#4f4f4f" d="M 377.5,242.5 C 376.486,243.674 375.153,244.34 373.5,244.5C 374.287,242.896 375.62,242.229 377.5,242.5 Z"/></g>
<g><path style="opacity:0.89" fill="#292929" d="M 390.5,240.5 C 391.167,240.5 391.833,240.5 392.5,240.5C 391.367,243.971 389.033,245.971 385.5,246.5C 387.883,245.115 389.55,243.115 390.5,240.5 Z"/></g>
<g><path style="opacity:0.384" fill="#b1b1b1" d="M 311.5,246.5 C 310.167,246.5 308.833,246.5 307.5,246.5C 307.5,247.5 307.5,248.5 307.5,249.5C 306.566,248.432 306.232,247.099 306.5,245.5C 308.415,245.216 310.081,245.549 311.5,246.5 Z"/></g>
<g><path style="opacity:0.004" fill="#656565" d="M 312.5,244.5 C 316.634,245.485 320.968,245.818 325.5,245.5C 321.03,246.486 316.363,246.819 311.5,246.5C 310.081,245.549 308.415,245.216 306.5,245.5C 306.232,247.099 306.566,248.432 307.5,249.5C 307.5,250.167 307.5,250.833 307.5,251.5C 306.5,251.167 305.833,250.5 305.5,249.5C 305.5,247.833 305.5,246.167 305.5,244.5C 307.833,244.5 310.167,244.5 312.5,244.5 Z"/></g>
<g><path style="opacity:0.882" fill="#4a4a4a" d="M 369.5,246.5 C 368.486,247.674 367.153,248.34 365.5,248.5C 366.183,246.824 367.517,246.157 369.5,246.5 Z"/></g>
<g><path style="opacity:1" fill="#2b2b2b" d="M 498.5,246.5 C 502.155,245.925 505.155,246.925 507.5,249.5C 504.145,249.31 501.145,248.31 498.5,246.5 Z"/></g>
<g><path style="opacity:0.769" fill="#4d4d4d" d="M 361.5,250.5 C 360.07,251.537 358.403,252.204 356.5,252.5C 357.635,250.787 359.302,250.12 361.5,250.5 Z"/></g>
<g><path style="opacity:0.984" fill="#464646" d="M 645.5,251.5 C 647.5,251.5 649.5,251.5 651.5,251.5C 652.11,252.391 652.443,253.391 652.5,254.5C 650.013,253.677 647.679,252.677 645.5,251.5 Z"/></g>
<g><path style="opacity:0.933" fill="#393939" d="M 407.5,251.5 C 406.101,252.89 404.434,253.89 402.5,254.5C 403.401,252.273 405.067,251.273 407.5,251.5 Z"/></g>
<g><path style="opacity:0.937" fill="#545454" d="M 517.5,251.5 C 519.167,251.5 520.833,251.5 522.5,251.5C 524.219,252.022 525.552,253.022 526.5,254.5C 523.254,253.946 520.254,252.946 517.5,251.5 Z"/></g>
<g><path style="opacity:0.868" fill="#1a1a1a" d="M 522.5,251.5 C 530.36,253.219 538.36,253.885 546.5,253.5C 546.5,253.833 546.5,254.167 546.5,254.5C 539.833,254.5 533.167,254.5 526.5,254.5C 525.552,253.022 524.219,252.022 522.5,251.5 Z"/></g>
<g><path style="opacity:0.941" fill="#1b1b1b" d="M 651.5,251.5 C 649.5,251.5 647.5,251.5 645.5,251.5C 640.833,251.5 636.167,251.5 631.5,251.5C 627.99,251.668 624.49,252.001 621,252.5C 619.014,252.569 617.514,253.235 616.5,254.5C 601.474,254.549 586.474,255.216 571.5,256.5C 563.113,256.163 554.779,255.496 546.5,254.5C 546.5,254.167 546.5,253.833 546.5,253.5C 568.843,253.833 591.177,253.5 613.5,252.5C 621.256,251.042 629.089,250.376 637,250.5C 642.012,250.501 646.845,250.834 651.5,251.5 Z"/></g>
<g><path style="opacity:0.004" fill="#555555" d="M 631.5,251.5 C 626.831,253.579 621.831,254.579 616.5,254.5C 617.514,253.235 619.014,252.569 621,252.5C 624.49,252.001 627.99,251.668 631.5,251.5 Z"/></g>
<g><path style="opacity:1" fill="#2b2b2b" d="M 312.5,253.5 C 314.574,254.514 316.574,255.514 318.5,256.5C 315.607,256.969 313.607,255.969 312.5,253.5 Z"/></g>
<g><path style="opacity:0.727" fill="#4e4e4e" d="M 655.5,254.5 C 657.698,254.12 659.365,254.787 660.5,256.5C 658.597,256.204 656.93,255.537 655.5,254.5 Z"/></g>
<g><path style="opacity:0.004" fill="#464646" d="M 351.5,254.5 C 350.035,255.737 348.368,256.737 346.5,257.5C 347.048,254.916 348.715,253.916 351.5,254.5 Z"/></g>
<g><path style="opacity:0.004" fill="#474747" d="M 341.5,258.5 C 339.351,259.736 337.018,260.736 334.5,261.5C 336.036,258.908 338.369,257.908 341.5,258.5 Z"/></g>
<g><path style="opacity:0.875" fill="#3f3f3f" d="M 290.5,262.5 C 290.167,262.5 289.833,262.5 289.5,262.5C 288.167,262.5 287.5,263.167 287.5,264.5C 287.5,264.833 287.5,265.167 287.5,265.5C 286.566,264.432 286.232,263.099 286.5,261.5C 288.099,261.232 289.432,261.566 290.5,262.5 Z"/></g>
<g><path style="opacity:0.235" fill="#7e7e7e" d="M 289.5,262.5 C 289.167,263.5 288.5,264.167 287.5,264.5C 287.5,263.167 288.167,262.5 289.5,262.5 Z"/></g>
<g><path style="opacity:1" fill="#2d2d2d" d="M 294.5,262.5 C 305.167,262.5 315.833,262.5 326.5,262.5C 325.791,263.404 324.791,263.737 323.5,263.5C 315.514,264.099 307.514,264.432 299.5,264.5C 297.597,264.204 295.93,263.537 294.5,262.5 Z"/></g>
<g><path style="opacity:0.569" fill="#4e4e4e" d="M 323.5,263.5 C 315.615,266.975 307.615,267.309 299.5,264.5C 307.514,264.432 315.514,264.099 323.5,263.5 Z"/></g>
<g><path style="opacity:0.004" fill="#454545" d="M 390.5,263.5 C 390.027,264.906 389.027,265.573 387.5,265.5C 387.821,263.952 388.821,263.285 390.5,263.5 Z"/></g>
<g><path style="opacity:0.012" fill="#525252" d="M 385.5,266.5 C 385.027,267.906 384.027,268.573 382.5,268.5C 382.973,267.094 383.973,266.427 385.5,266.5 Z"/></g>
<g><path style="opacity:0.796" fill="#616161" d="M 263.5,266.5 C 263.167,268.833 261.833,270.167 259.5,270.5C 260.5,268.833 261.833,267.5 263.5,266.5 Z"/></g>
<g><path style="opacity:0.973" fill="#383838" d="M 739.5,265.5 C 741.074,267.102 741.741,269.102 741.5,271.5C 739.926,269.898 739.259,267.898 739.5,265.5 Z"/></g>
<g><path style="opacity:0.941" fill="#292929" d="M 264.5,263.5 C 265.815,268.836 263.815,271.503 258.5,271.5C 258.5,270.833 258.833,270.5 259.5,270.5C 261.833,270.167 263.167,268.833 263.5,266.5C 263.263,265.209 263.596,264.209 264.5,263.5 Z"/></g>
<g><path style="opacity:0.012" fill="#494949" d="M 377.5,271.5 C 377.027,272.906 376.027,273.573 374.5,273.5C 374.973,272.094 375.973,271.427 377.5,271.5 Z"/></g>
<g><path style="opacity:0.776" fill="#3a3a3a" d="M 341.5,274.5 C 340.713,276.104 339.38,276.771 337.5,276.5C 338.514,275.326 339.847,274.66 341.5,274.5 Z"/></g>
<g><path style="opacity:0.863" fill="#494949" d="M 365.5,278.5 C 364.486,279.674 363.153,280.34 361.5,280.5C 362.183,278.824 363.517,278.157 365.5,278.5 Z"/></g>
<g><path style="opacity:0.914" fill="#2d2d2d" d="M 333.5,277.5 C 331.964,280.092 329.631,281.092 326.5,280.5C 328.509,278.935 330.843,277.935 333.5,277.5 Z"/></g>
<g><path style="opacity:0.883" fill="#222222" d="M 300.5,277.5 C 302.14,278.32 303.807,279.153 305.5,280C 311.491,280.499 317.491,280.666 323.5,280.5C 320.791,281.674 317.957,282.674 315,283.5C 311.272,282.294 307.439,281.461 303.5,281C 301.937,280.241 300.937,279.074 300.5,277.5 Z"/></g>
<g><path style="opacity:0.173" fill="#424242" d="M 353.5,283.5 C 352.486,284.674 351.153,285.34 349.5,285.5C 350.287,283.896 351.62,283.229 353.5,283.5 Z"/></g>
<g><path style="opacity:0.898" fill="#414141" d="M 258.5,285.5 C 259.833,285.5 260.5,286.167 260.5,287.5C 259.5,287.167 258.833,286.5 258.5,285.5 Z"/></g>
<g><path style="opacity:0.98" fill="#333333" d="M 260.5,287.5 C 262.027,287.427 263.027,288.094 263.5,289.5C 261.973,289.573 260.973,288.906 260.5,287.5 Z"/></g>
<g><path style="opacity:0.969" fill="#424242" d="M 345.5,286.5 C 343.11,288.02 340.443,289.02 337.5,289.5C 337.5,289.167 337.5,288.833 337.5,288.5C 337.611,287.883 337.944,287.383 338.5,287C 340.81,286.503 343.143,286.337 345.5,286.5 Z"/></g>
<g><path style="opacity:0.678" fill="#2f2f2f" d="M 685.5,284.5 C 686.496,284.414 687.329,284.748 688,285.5C 688.494,287.134 688.66,288.801 688.5,290.5C 687.514,288.574 686.514,286.574 685.5,284.5 Z"/></g>
<g><path style="opacity:0.729" fill="#252525" d="M 337.5,288.5 C 337.5,288.833 337.5,289.167 337.5,289.5C 335.393,290.468 333.059,290.802 330.5,290.5C 332.715,289.732 335.048,289.065 337.5,288.5 Z"/></g>
<g><path style="opacity:0.839" fill="#5b5b5b" d="M 327.5,291.5 C 326.17,305.614 324.837,319.614 323.5,333.5C 323.333,320.496 323.5,307.496 324,294.5C 324.72,292.944 325.887,291.944 327.5,291.5 Z"/></g>
<g><path style="opacity:0.847" fill="#1e1e1e" d="M 688.5,297.5 C 690.669,303.521 691.669,309.854 691.5,316.5C 690.954,313.353 689.954,310.353 688.5,307.5C 688.5,304.167 688.5,300.833 688.5,297.5 Z"/></g>
<g><path style="opacity:0.847" fill="#4a4a4a" d="M 741.5,306.5 C 741.34,308.153 740.674,309.486 739.5,310.5C 739.229,308.62 739.896,307.287 741.5,306.5 Z"/></g>
<g><path style="opacity:0.327" fill="#424242" d="M 277.5,306.5 C 278.117,306.611 278.617,306.944 279,307.5C 279.497,309.81 279.663,312.143 279.5,314.5C 278.469,312.039 277.802,309.373 277.5,306.5 Z"/></g>
<g><path style="opacity:0.975" fill="#404040" d="M 688.5,307.5 C 689.954,310.353 690.954,313.353 691.5,316.5C 691.5,323.167 691.5,329.833 691.5,336.5C 690.532,334.393 690.198,332.059 690.5,329.5C 690.666,325.486 690.499,321.486 690,317.5C 689.722,316.584 689.222,315.918 688.5,315.5C 688.5,312.833 688.5,310.167 688.5,307.5 Z"/></g>
<g><path style="opacity:0.924" fill="#606060" d="M 688.5,315.5 C 689.222,315.918 689.722,316.584 690,317.5C 690.499,321.486 690.666,325.486 690.5,329.5C 689.479,325.02 688.813,320.353 688.5,315.5 Z"/></g>
<g><path style="opacity:0.867" fill="#262626" d="M 736.5,320.5 C 736.405,322.786 735.738,324.786 734.5,326.5C 734.054,323.99 734.72,321.99 736.5,320.5 Z"/></g>
<g><path style="opacity:0.945" fill="#393939" d="M 733.5,334.5 C 733.405,336.786 732.738,338.786 731.5,340.5C 731.054,337.99 731.72,335.99 733.5,334.5 Z"/></g>
<g><path style="opacity:0.945" fill="#464646" d="M 280.5,340.5 C 282.956,344.738 283.956,349.404 283.5,354.5C 281.581,350.143 280.581,345.477 280.5,340.5 Z"/></g>
<g><path style="opacity:0.388" fill="#2e2e2e" d="M 322.5,348.5 C 322.39,353.622 321.056,358.288 318.5,362.5C 318.717,357.353 320.05,352.686 322.5,348.5 Z"/></g>
<g><path style="opacity:0.835" fill="#2a2a2a" d="M 729.5,351.5 C 729.02,354.443 728.02,357.11 726.5,359.5C 725.828,356.058 726.828,353.391 729.5,351.5 Z"/></g>
<g><path style="opacity:0.773" fill="#313131" d="M 725.5,367.5 C 724.736,370.018 723.736,372.351 722.5,374.5C 721.908,371.369 722.908,369.036 725.5,367.5 Z"/></g>
<g><path style="opacity:0.859" fill="#535353" d="M 317.5,369.5 C 317.435,372.428 316.768,375.095 315.5,377.5C 315.337,375.143 315.503,372.81 316,370.5C 316.383,369.944 316.883,369.611 317.5,369.5 Z"/></g>
<g><path style="opacity:1" fill="#1b1b1b" d="M 692.5,366.5 C 694.954,370.673 695.954,375.339 695.5,380.5C 694.857,378.924 693.857,377.59 692.5,376.5C 692.5,373.167 692.5,369.833 692.5,366.5 Z"/></g>
<g><path style="opacity:0.925" fill="#383838" d="M 284.5,372.5 C 285.458,372.953 286.292,373.619 287,374.5C 287.497,376.81 287.663,379.143 287.5,381.5C 286.054,378.746 285.054,375.746 284.5,372.5 Z"/></g>
<g><path style="opacity:0.467" fill="#616161" d="M 692.5,378.5 C 693.795,382.267 694.461,386.267 694.5,390.5C 694.821,396.026 694.488,401.36 693.5,406.5C 693.566,397.148 693.232,387.815 692.5,378.5 Z"/></g>
<g><path style="opacity:0.875" fill="#323232" d="M 721.5,380.5 C 721.068,381.71 720.401,382.71 719.5,383.5C 719.285,381.821 719.952,380.821 721.5,380.5 Z"/></g>
<g><path style="opacity:1" fill="#323232" d="M 692.5,376.5 C 693.857,377.59 694.857,378.924 695.5,380.5C 695.5,383.833 695.5,387.167 695.5,390.5C 695.167,390.5 694.833,390.5 694.5,390.5C 694.461,386.267 693.795,382.267 692.5,378.5C 692.5,377.833 692.5,377.167 692.5,376.5 Z"/></g>
<g><path style="opacity:0.851" fill="#373737" d="M 289.5,394.5 C 290.931,395.78 291.598,397.447 291.5,399.5C 290.069,398.22 289.402,396.553 289.5,394.5 Z"/></g>
<g><path style="opacity:0.864" fill="#494949" d="M 694.5,390.5 C 694.833,390.5 695.167,390.5 695.5,390.5C 695.5,391.167 695.5,391.833 695.5,392.5C 695.717,401.541 695.217,410.541 694,419.5C 693.617,420.056 693.117,420.389 692.5,420.5C 692.669,415.819 693.002,411.152 693.5,406.5C 694.488,401.36 694.821,396.026 694.5,390.5 Z"/></g>
<g><path style="opacity:0.958" fill="#222222" d="M 695.5,392.5 C 696.656,400.323 696.823,408.323 696,416.5C 695.856,419.442 694.689,421.776 692.5,423.5C 692.5,422.5 692.5,421.5 692.5,420.5C 693.117,420.389 693.617,420.056 694,419.5C 695.217,410.541 695.717,401.541 695.5,392.5 Z"/></g>
<g><path style="opacity:0.937" fill="#242424" d="M 301.5,426.5 C 303.969,427.607 304.969,429.607 304.5,432.5C 303.514,430.574 302.514,428.574 301.5,426.5 Z"/></g>
<g><path style="opacity:0.949" fill="#292929" d="M 314.5,423.5 C 314.5,428.167 314.5,432.833 314.5,437.5C 312.974,436.508 312.307,435.008 312.5,433C 312.807,429.624 313.474,426.457 314.5,423.5 Z"/></g>
<g><path style="opacity:0.998" fill="#000000" d="M 489.5,481.5 C 489.821,483.048 490.821,483.715 492.5,483.5C 496.976,485.238 500.976,487.738 504.5,491C 506.025,492.009 507.692,492.509 509.5,492.5C 512.285,493.084 513.952,492.084 514.5,489.5C 517.339,487.58 520.339,485.913 523.5,484.5C 526.313,484.975 528.313,483.975 529.5,481.5C 535.418,480.379 541.418,480.212 547.5,481C 551.346,482.086 554.68,483.919 557.5,486.5C 562.833,492.5 568.5,498.167 574.5,503.5C 582.194,513.703 590.86,523.203 600.5,532C 603.528,533.844 606.528,535.678 609.5,537.5C 609.5,538.833 610.167,539.5 611.5,539.5C 613.5,540.167 615.5,540.833 617.5,541.5C 617.414,542.496 617.748,543.329 618.5,544C 620.134,544.494 621.801,544.66 623.5,544.5C 624.5,544.5 625.5,544.5 626.5,544.5C 626.414,545.496 626.748,546.329 627.5,547C 630.5,547.667 633.5,547.667 636.5,547C 637.381,546.292 638.047,545.458 638.5,544.5C 642.985,544.283 646.985,542.783 650.5,540C 657.272,534.934 661.939,528.434 664.5,520.5C 665.65,515.684 665.816,510.684 665,505.5C 664.184,504.177 663.017,503.511 661.5,503.5C 660.833,502.167 660.167,500.833 659.5,499.5C 659.316,496.663 657.982,494.663 655.5,493.5C 653.287,491.458 652.62,489.125 653.5,486.5C 656.482,486.963 659.482,487.296 662.5,487.5C 671.013,492.828 676.346,500.495 678.5,510.5C 678.334,515.179 678.501,519.845 679,524.5C 680.626,525.955 681.792,527.622 682.5,529.5C 682.5,537.167 682.5,544.833 682.5,552.5C 681.596,553.209 681.263,554.209 681.5,555.5C 680.542,555.953 679.708,556.619 679,557.5C 678.501,561.152 678.335,564.818 678.5,568.5C 673.437,591.221 660.771,608.221 640.5,619.5C 638.821,619.285 637.821,619.952 637.5,621.5C 625.503,626.496 613.17,627.829 600.5,625.5C 597.916,623.528 594.916,622.528 591.5,622.5C 585.894,621.859 580.894,619.859 576.5,616.5C 575.713,614.896 574.38,614.229 572.5,614.5C 556.851,606.742 543.017,596.409 531,583.5C 526.643,576.777 521.81,570.444 516.5,564.5C 515.411,559.632 512.411,557.132 507.5,557C 506.058,557.377 505.058,558.21 504.5,559.5C 503.094,559.973 502.427,560.973 502.5,562.5C 493.668,572.835 485.001,583.335 476.5,594C 463.137,605.02 448.471,614.02 432.5,621C 430.26,621.977 427.927,622.477 425.5,622.5C 422.99,622.054 420.99,622.72 419.5,624.5C 414.767,626.046 409.767,626.713 404.5,626.5C 400.118,626.438 395.784,626.105 391.5,625.5C 389.824,623.166 387.491,622.166 384.5,622.5C 377.79,621.314 372.123,618.314 367.5,613.5C 366.415,611.413 364.749,610.08 362.5,609.5C 362.167,608.5 361.5,607.833 360.5,607.5C 350.692,596.898 343.692,584.565 339.5,570.5C 339.946,567.99 339.28,565.99 337.5,564.5C 337.5,564.167 337.5,563.833 337.5,563.5C 337.333,548.83 337.5,534.163 338,519.5C 338.667,518.833 339.333,518.167 340,517.5C 340.498,514.183 340.665,510.85 340.5,507.5C 340.784,504.148 341.95,501.148 344,498.5C 345.912,496.343 347.579,494.009 349,491.5C 350.271,490.117 351.771,489.117 353.5,488.5C 356.649,488.585 359.316,487.585 361.5,485.5C 363.167,485.5 364.833,485.5 366.5,485.5C 366.203,489.326 364.37,492.326 361,494.5C 359.303,497.672 357.47,500.672 355.5,503.5C 353.837,505.438 353.171,507.772 353.5,510.5C 350.551,512.265 349.885,514.598 351.5,517.5C 352.857,518.59 353.857,519.924 354.5,521.5C 354.87,525.289 356.203,528.622 358.5,531.5C 360.167,535.167 362.833,537.833 366.5,539.5C 367.167,539.833 367.833,540.167 368.5,540.5C 369.122,543.776 371.122,545.109 374.5,544.5C 375.5,544.5 376.5,544.5 377.5,544.5C 377.414,545.496 377.748,546.329 378.5,547C 382.027,547.808 385.36,547.641 388.5,546.5C 388.5,545.833 388.5,545.167 388.5,544.5C 394.095,544.19 399.428,542.857 404.5,540.5C 406.989,540.759 408.656,539.759 409.5,537.5C 412.736,534.203 416.403,531.37 420.5,529C 424.065,525.604 427.398,522.104 430.5,518.5C 432.587,517.415 433.92,515.749 434.5,513.5C 443.274,502.892 452.94,493.059 463.5,484C 471.848,480.352 480.515,479.518 489.5,481.5 Z"/></g>
<g><path style="opacity:0.949" fill="#444444" d="M 489.5,481.5 C 490.71,481.932 491.71,482.599 492.5,483.5C 490.821,483.715 489.821,483.048 489.5,481.5 Z"/></g>
<g><path style="opacity:0.889" fill="#262626" d="M 529.5,481.5 C 528.313,483.975 526.313,484.975 523.5,484.5C 525.181,482.992 527.181,481.992 529.5,481.5 Z"/></g>
<g><path style="opacity:1" fill="#2e2e2e" d="M 361.5,485.5 C 359.316,487.585 356.649,488.585 353.5,488.5C 355.684,486.415 358.351,485.415 361.5,485.5 Z"/></g>
<g><path style="opacity:0.925" fill="#2e2e2e" d="M 653.5,486.5 C 654.449,485.848 655.615,485.514 657,485.5C 659.221,485.393 661.054,486.06 662.5,487.5C 659.482,487.296 656.482,486.963 653.5,486.5 Z"/></g>
<g><path style="opacity:0.365" fill="#3e3e3e" d="M 557.5,486.5 C 564.167,491.167 569.833,496.833 574.5,503.5C 568.5,498.167 562.833,492.5 557.5,486.5 Z"/></g>
<g><path style="opacity:0.945" fill="#282828" d="M 514.5,489.5 C 513.952,492.084 512.285,493.084 509.5,492.5C 510.965,491.263 512.632,490.263 514.5,489.5 Z"/></g>
<g><path style="opacity:0.925" fill="#2c2c2c" d="M 655.5,493.5 C 657.982,494.663 659.316,496.663 659.5,499.5C 657.808,497.795 656.475,495.795 655.5,493.5 Z"/></g>
<g><path style="opacity:0.851" fill="#2b2b2b" d="M 355.5,503.5 C 355.007,505.806 354.674,508.139 354.5,510.5C 354.167,510.5 353.833,510.5 353.5,510.5C 353.171,507.772 353.837,505.438 355.5,503.5 Z"/></g>
<g><path style="opacity:0.844" fill="#1a1a1a" d="M 661.5,503.5 C 663.017,503.511 664.184,504.177 665,505.5C 665.816,510.684 665.65,515.684 664.5,520.5C 665.005,514.514 664.005,508.848 661.5,503.5 Z"/></g>
<g><path style="opacity:0.98" fill="#424242" d="M 339.5,510.5 C 339.946,513.01 339.28,515.01 337.5,516.5C 337.259,514.102 337.926,512.102 339.5,510.5 Z"/></g>
<g><path style="opacity:1" fill="#262626" d="M 353.5,510.5 C 352.067,512.558 351.4,514.892 351.5,517.5C 349.885,514.598 350.551,512.265 353.5,510.5 Z"/></g>
<g><path style="opacity:0.198" fill="#5c5c5c" d="M 353.5,510.5 C 353.833,510.5 354.167,510.5 354.5,510.5C 354.5,514.167 354.5,517.833 354.5,521.5C 353.857,519.924 352.857,518.59 351.5,517.5C 351.4,514.892 352.067,512.558 353.5,510.5 Z"/></g>
<g><path style="opacity:0.957" fill="#272727" d="M 434.5,513.5 C 433.92,515.749 432.587,517.415 430.5,518.5C 431.08,516.251 432.413,514.585 434.5,513.5 Z"/></g>
<g><path style="opacity:0.482" fill="#414141" d="M 679.5,513.5 C 681.416,517.163 682.416,521.163 682.5,525.5C 681.542,525.047 680.708,524.381 680,523.5C 679.502,520.183 679.335,516.85 679.5,513.5 Z"/></g>
<g><path style="opacity:1" fill="#1b1b1b" d="M 678.5,510.5 C 679.404,511.209 679.737,512.209 679.5,513.5C 679.335,516.85 679.502,520.183 680,523.5C 680.708,524.381 681.542,525.047 682.5,525.5C 682.5,526.833 682.5,528.167 682.5,529.5C 681.792,527.622 680.626,525.955 679,524.5C 678.501,519.845 678.334,515.179 678.5,510.5 Z"/></g>
<g><path style="opacity:0.899" fill="#151515" d="M 340.5,507.5 C 340.665,510.85 340.498,514.183 340,517.5C 339.333,518.167 338.667,518.833 338,519.5C 337.5,534.163 337.333,548.83 337.5,563.5C 334.976,547.838 334.976,532.171 337.5,516.5C 339.28,515.01 339.946,513.01 339.5,510.5C 339.263,509.209 339.596,508.209 340.5,507.5 Z"/></g>
<g><path style="opacity:0.91" fill="#404040" d="M 358.5,531.5 C 361.5,533.833 364.167,536.5 366.5,539.5C 362.833,537.833 360.167,535.167 358.5,531.5 Z"/></g>
<g><path style="opacity:0.945" fill="#3e3e3e" d="M 609.5,537.5 C 610.5,537.833 611.167,538.5 611.5,539.5C 610.167,539.5 609.5,538.833 609.5,537.5 Z"/></g>
<g><path style="opacity:0.965" fill="#212121" d="M 409.5,537.5 C 408.656,539.759 406.989,540.759 404.5,540.5C 405.899,539.11 407.566,538.11 409.5,537.5 Z"/></g>
<g><path style="opacity:0.48" fill="#3a3a3a" d="M 368.5,540.5 C 370.537,541.846 372.537,543.18 374.5,544.5C 371.122,545.109 369.122,543.776 368.5,540.5 Z"/></g>
<g><path style="opacity:0.816" fill="#3c3c3c" d="M 617.5,541.5 C 619.574,542.514 621.574,543.514 623.5,544.5C 621.801,544.66 620.134,544.494 618.5,544C 617.748,543.329 617.414,542.496 617.5,541.5 Z"/></g>
<g><path style="opacity:0.865" fill="#626262" d="M 379.5,544.5 C 382.5,545.833 385.5,545.833 388.5,544.5C 388.5,545.167 388.5,545.833 388.5,546.5C 385.813,546.664 383.146,546.497 380.5,546C 379.944,545.617 379.611,545.117 379.5,544.5 Z"/></g>
<g><path style="opacity:0.964" fill="#3a3a3a" d="M 377.5,544.5 C 378.167,544.5 378.833,544.5 379.5,544.5C 379.611,545.117 379.944,545.617 380.5,546C 383.146,546.497 385.813,546.664 388.5,546.5C 385.36,547.641 382.027,547.808 378.5,547C 377.748,546.329 377.414,545.496 377.5,544.5 Z"/></g>
<g><path style="opacity:0.969" fill="#3e3e3e" d="M 626.5,544.5 C 627.5,544.5 628.5,544.5 629.5,544.5C 630.134,545.947 631.301,546.613 633,546.5C 634.699,546.613 635.866,545.947 636.5,544.5C 637.167,544.5 637.833,544.5 638.5,544.5C 638.047,545.458 637.381,546.292 636.5,547C 633.5,547.667 630.5,547.667 627.5,547C 626.748,546.329 626.414,545.496 626.5,544.5 Z"/></g>
<g><path style="opacity:0.871" fill="#696969" d="M 629.5,544.5 C 631.882,545.546 634.215,545.546 636.5,544.5C 635.866,545.947 634.699,546.613 633,546.5C 631.301,546.613 630.134,545.947 629.5,544.5 Z"/></g>
<g><path style="opacity:0.861" fill="#373737" d="M 516.5,564.5 C 515.023,562.193 513.023,560.36 510.5,559C 508.455,558.51 506.455,558.677 504.5,559.5C 505.058,558.21 506.058,557.377 507.5,557C 512.411,557.132 515.411,559.632 516.5,564.5 Z"/></g>
<g><path style="opacity:0.984" fill="#3c3c3c" d="M 682.5,552.5 C 682.876,557.261 681.876,561.595 679.5,565.5C 679.547,562.031 680.213,558.698 681.5,555.5C 681.263,554.209 681.596,553.209 682.5,552.5 Z"/></g>
<g><path style="opacity:0.992" fill="#1b1b1b" d="M 681.5,555.5 C 680.213,558.698 679.547,562.031 679.5,565.5C 679.737,566.791 679.404,567.791 678.5,568.5C 678.335,564.818 678.501,561.152 679,557.5C 679.708,556.619 680.542,555.953 681.5,555.5 Z"/></g>
<g><path style="opacity:0.149" fill="#5f5f5f" d="M 504.5,559.5 C 504.573,561.027 503.906,562.027 502.5,562.5C 502.427,560.973 503.094,559.973 504.5,559.5 Z"/></g>
<g><path style="opacity:0.941" fill="#313131" d="M 337.5,564.5 C 339.28,565.99 339.946,567.99 339.5,570.5C 338.262,568.786 337.595,566.786 337.5,564.5 Z"/></g>
<g><path style="opacity:0.998" fill="#000000" d="M 568.5,625.5 C 569.3,627.741 570.966,628.741 573.5,628.5C 574.167,628.5 574.833,628.5 575.5,628.5C 577.249,631.375 579.915,632.708 583.5,632.5C 586.279,632.279 588.946,632.612 591.5,633.5C 592.99,635.28 594.99,635.946 597.5,635.5C 611.162,636.813 624.829,636.813 638.5,635.5C 642.135,634.886 645.802,634.552 649.5,634.5C 653.784,639.398 656.784,645.065 658.5,651.5C 658.34,653.199 658.506,654.866 659,656.5C 659.417,657.756 660.25,658.423 661.5,658.5C 662.341,660.379 662.675,662.379 662.5,664.5C 661.976,668.428 662.976,671.761 665.5,674.5C 666.444,680.994 667.111,687.661 667.5,694.5C 667.5,703.5 667.5,712.5 667.5,721.5C 667.13,727.579 666.463,733.579 665.5,739.5C 663.345,741.617 662.345,744.284 662.5,747.5C 661.853,752.461 659.853,756.794 656.5,760.5C 654.739,759.965 653.406,758.965 652.5,757.5C 651.01,755.72 649.01,755.054 646.5,755.5C 646.5,756.5 646.5,757.5 646.5,758.5C 646.5,762.5 646.5,766.5 646.5,770.5C 643.925,772.845 642.925,775.845 643.5,779.5C 639.695,796.779 632.862,812.779 623,827.5C 617.167,834 611.333,840.5 605.5,847C 603.323,848.202 600.989,848.702 598.5,848.5C 598.5,847.5 598.5,846.5 598.5,845.5C 596.473,845.338 594.473,845.505 592.5,846C 591.663,847.011 591.33,848.178 591.5,849.5C 589.612,853.606 587.446,857.606 585,861.5C 574.27,872.899 562.937,883.566 551,893.5C 549.672,896.312 548.172,898.978 546.5,901.5C 544.738,902.262 543.738,903.596 543.5,905.5C 543.338,907.527 543.505,909.527 544,911.5C 544.383,912.056 544.883,912.389 545.5,912.5C 545.663,914.857 545.497,917.19 545,919.5C 543.855,920.684 542.688,920.684 541.5,919.5C 537.956,917.732 533.956,916.898 529.5,917C 529.043,916.586 528.709,916.086 528.5,915.5C 524.893,914.511 521.226,914.177 517.5,914.5C 515.05,914.702 512.717,914.369 510.5,913.5C 508.824,911.166 506.491,910.166 503.5,910.5C 501.708,910.634 500.042,910.301 498.5,909.5C 498.586,908.504 498.252,907.671 497.5,907C 495.866,906.506 494.199,906.34 492.5,906.5C 490.784,906.371 489.117,906.038 487.5,905.5C 486.952,902.916 485.285,901.916 482.5,902.5C 456.633,890.309 435.633,872.309 419.5,848.5C 419.389,847.883 419.056,847.383 418.5,847C 416.527,846.505 414.527,846.338 412.5,846.5C 410.692,846.509 409.025,846.009 407.5,845C 395.516,833.531 387.85,819.697 384.5,803.5C 384.982,800.169 383.982,797.503 381.5,795.5C 380.618,790.903 379.951,786.237 379.5,781.5C 380.142,777.525 379.142,774.192 376.5,771.5C 376.5,766.833 376.5,762.167 376.5,757.5C 376.995,752.973 375.328,751.639 371.5,753.5C 370.5,754.167 369.5,754.833 368.5,755.5C 367.167,755.167 365.833,754.833 364.5,754.5C 362.005,747.198 359.505,739.864 357,732.5C 356.452,728.83 355.952,725.163 355.5,721.5C 355.492,718.455 355.159,715.455 354.5,712.5C 354.5,700.833 354.5,689.167 354.5,677.5C 355.7,671.739 356.7,666.073 357.5,660.5C 359.868,658.044 360.868,655.044 360.5,651.5C 360.401,648.763 360.735,646.096 361.5,643.5C 363.104,642.713 363.771,641.38 363.5,639.5C 364.8,633.708 368.467,631.375 374.5,632.5C 374.5,633.833 374.5,635.167 374.5,636.5C 391.167,636.5 407.833,636.5 424.5,636.5C 424.567,635.041 424.234,633.708 423.5,632.5C 425.5,632.5 427.5,632.5 429.5,632.5C 432.831,632.982 435.497,631.982 437.5,629.5C 438.568,628.566 439.901,628.232 441.5,628.5C 444.034,628.741 445.7,627.741 446.5,625.5C 469.546,614.958 487.379,598.625 500,576.5C 502.143,573.675 504.81,571.675 508,570.5C 511.529,572.015 514.529,574.348 517,577.5C 529.204,598.872 546.371,614.872 568.5,625.5 Z M 645.5,684.5 C 645.833,685.5 646.5,686.167 647.5,686.5C 648.234,687.708 648.567,689.041 648.5,690.5C 648.5,692.833 648.5,695.167 648.5,697.5C 649.383,702.103 649.717,706.77 649.5,711.5C 648.89,712.391 648.557,713.391 648.5,714.5C 647.842,725.65 643.509,735.15 635.5,743C 634.255,743.791 632.922,744.291 631.5,744.5C 630.5,744.5 629.5,744.5 628.5,744.5C 628.5,743.5 628.5,742.5 628.5,741.5C 631.563,736.379 634.396,731.046 637,725.5C 638.31,721.93 639.143,718.263 639.5,714.5C 643.151,705.96 643.484,697.293 640.5,688.5C 640.5,688.167 640.5,687.833 640.5,687.5C 640.5,686.5 640.5,685.5 640.5,684.5C 642.099,683.438 643.766,683.438 645.5,684.5 Z M 417.5,738.5 C 417.833,738.5 418.167,738.5 418.5,738.5C 418.5,739.167 418.833,739.5 419.5,739.5C 422.603,750.225 426.769,760.558 432,770.5C 436.4,777.734 442.233,783.401 449.5,787.5C 450.167,788.5 450.833,789.5 451.5,790.5C 452.773,793.901 451.44,795.234 447.5,794.5C 446.833,794.167 446.167,793.833 445.5,793.5C 444.609,792.89 443.609,792.557 442.5,792.5C 441.035,791.263 439.368,790.263 437.5,789.5C 436.5,787.833 435.167,786.5 433.5,785.5C 432.167,783.5 430.5,781.833 428.5,780.5C 425.337,776.844 422.671,772.844 420.5,768.5C 419.677,766.013 418.677,763.679 417.5,761.5C 417.737,760.209 417.404,759.209 416.5,758.5C 414.848,753.659 414.182,748.659 414.5,743.5C 414.5,742.167 414.5,740.833 414.5,739.5C 415.391,738.89 416.391,738.557 417.5,738.5 Z M 407.5,755.5 C 407.328,756.492 407.662,757.158 408.5,757.5C 417.321,783.811 429.821,808.144 446,830.5C 454.5,839 463,847.5 471.5,856C 479.446,862.139 488.113,866.973 497.5,870.5C 498.965,871.737 500.632,872.737 502.5,873.5C 504.764,874.219 507.097,874.552 509.5,874.5C 515.135,877.167 521.135,878.833 527.5,879.5C 527.511,883.352 525.511,885.185 521.5,885C 513.855,886.73 506.189,886.896 498.5,885.5C 497.292,884.766 495.959,884.433 494.5,884.5C 492.833,884.5 491.167,884.5 489.5,884.5C 487.574,883.514 485.574,882.514 483.5,881.5C 472.157,876.83 462.157,870.163 453.5,861.5C 451.833,859.167 449.833,857.167 447.5,855.5C 430.715,836.615 418.549,814.948 411,790.5C 407.595,779.639 404.762,768.639 402.5,757.5C 403.338,757.158 403.672,756.492 403.5,755.5C 404.833,754.167 406.167,754.167 407.5,755.5 Z"/></g>
<g><path style="opacity:0.004" fill="#494949" d="M 360.5,607.5 C 361.5,607.833 362.167,608.5 362.5,609.5C 361.167,609.5 360.5,608.833 360.5,607.5 Z"/></g>
<g><path style="opacity:0.945" fill="#303030" d="M 362.5,609.5 C 364.749,610.08 366.415,611.413 367.5,613.5C 365.251,612.92 363.585,611.587 362.5,609.5 Z"/></g>
<g><path style="opacity:0.89" fill="#444444" d="M 572.5,614.5 C 574.38,614.229 575.713,614.896 576.5,616.5C 574.847,616.34 573.514,615.674 572.5,614.5 Z"/></g>
<g><path style="opacity:0.525" fill="#484848" d="M 640.5,619.5 C 639.71,620.401 638.71,621.068 637.5,621.5C 637.821,619.952 638.821,619.285 640.5,619.5 Z"/></g>
<g><path style="opacity:0.922" fill="#2a2a2a" d="M 384.5,622.5 C 387.491,622.166 389.824,623.166 391.5,625.5C 388.843,625.065 386.509,624.065 384.5,622.5 Z"/></g>
<g><path style="opacity:0.698" fill="#4c4c4c" d="M 425.5,622.5 C 423.786,623.738 421.786,624.405 419.5,624.5C 420.99,622.72 422.99,622.054 425.5,622.5 Z"/></g>
<g><path style="opacity:0.898" fill="#282828" d="M 591.5,622.5 C 594.916,622.528 597.916,623.528 600.5,625.5C 597.145,625.31 594.145,624.31 591.5,622.5 Z"/></g>
<g><path style="opacity:0.949" fill="#313131" d="M 568.5,625.5 C 570.368,626.263 572.035,627.263 573.5,628.5C 570.966,628.741 569.3,627.741 568.5,625.5 Z"/></g>
<g><path style="opacity:0.788" fill="#2e2e2e" d="M 446.5,625.5 C 445.7,627.741 444.034,628.741 441.5,628.5C 442.965,627.263 444.632,626.263 446.5,625.5 Z"/></g>
<g><path style="opacity:1" fill="#2a2a2a" d="M 575.5,628.5 C 578.328,629.655 580.995,630.989 583.5,632.5C 579.915,632.708 577.249,631.375 575.5,628.5 Z"/></g>
<g><path style="opacity:0.937" fill="#2f2f2f" d="M 437.5,629.5 C 435.497,631.982 432.831,632.982 429.5,632.5C 431.936,631.129 434.603,630.129 437.5,629.5 Z"/></g>
<g><path style="opacity:0.976" fill="#414141" d="M 649.5,634.5 C 645.802,634.552 642.135,634.886 638.5,635.5C 640.918,634.134 643.584,633.134 646.5,632.5C 648.038,632.453 649.038,633.12 649.5,634.5 Z"/></g>
<g><path style="opacity:0.957" fill="#3e3e3e" d="M 591.5,633.5 C 593.786,633.595 595.786,634.262 597.5,635.5C 594.99,635.946 592.99,635.28 591.5,633.5 Z"/></g>
<g><path style="opacity:0.9" fill="#121212" d="M 374.5,632.5 C 375.167,632.5 375.833,632.5 376.5,632.5C 376.881,633.931 377.881,634.764 379.5,635C 383.821,635.499 388.154,635.666 392.5,635.5C 399.167,635.5 405.833,635.5 412.5,635.5C 415.518,635.665 418.518,635.498 421.5,635C 422.252,634.329 422.586,633.496 422.5,632.5C 422.833,632.5 423.167,632.5 423.5,632.5C 424.234,633.708 424.567,635.041 424.5,636.5C 407.833,636.5 391.167,636.5 374.5,636.5C 374.5,635.167 374.5,633.833 374.5,632.5 Z"/></g>
<g><path style="opacity:1" fill="#373737" d="M 422.5,632.5 C 422.586,633.496 422.252,634.329 421.5,635C 418.518,635.498 415.518,635.665 412.5,635.5C 415.626,634.08 418.959,633.08 422.5,632.5 Z"/></g>
<g><path style="opacity:0.963" fill="#3f3f3f" d="M 376.5,632.5 C 382.116,632.656 387.449,633.656 392.5,635.5C 388.154,635.666 383.821,635.499 379.5,635C 377.881,634.764 376.881,633.931 376.5,632.5 Z"/></g>
<g><path style="opacity:0.867" fill="#343434" d="M 363.5,639.5 C 363.771,641.38 363.104,642.713 361.5,643.5C 361.66,641.847 362.326,640.514 363.5,639.5 Z"/></g>
<g><path style="opacity:0.922" fill="#2b2b2b" d="M 658.5,651.5 C 659.736,653.649 660.736,655.982 661.5,658.5C 660.25,658.423 659.417,657.756 659,656.5C 658.506,654.866 658.34,653.199 658.5,651.5 Z"/></g>
<g><path style="opacity:0.984" fill="#252525" d="M 360.5,651.5 C 360.868,655.044 359.868,658.044 357.5,660.5C 357.69,657.145 358.69,654.145 360.5,651.5 Z"/></g>
<g><path style="opacity:0.965" fill="#343434" d="M 662.5,664.5 C 664.025,667.583 665.025,670.916 665.5,674.5C 662.976,671.761 661.976,668.428 662.5,664.5 Z"/></g>
<g><path style="opacity:0.859" fill="#4b4b4b" d="M 639.5,677.5 C 642.712,677.712 644.712,679.379 645.5,682.5C 644.18,681.058 642.514,680.392 640.5,680.5C 640.5,681.833 640.5,683.167 640.5,684.5C 640.5,685.5 640.5,686.5 640.5,687.5C 638.224,684.476 637.891,681.143 639.5,677.5 Z"/></g>
<g><path style="opacity:0.78" fill="#979797" d="M 645.5,682.5 C 645.5,683.167 645.5,683.833 645.5,684.5C 643.766,683.438 642.099,683.438 640.5,684.5C 640.5,683.167 640.5,681.833 640.5,680.5C 642.514,680.392 644.18,681.058 645.5,682.5 Z"/></g>
<g><path style="opacity:0.004" fill="#4a4a4a" d="M 645.5,682.5 C 646.674,683.514 647.34,684.847 647.5,686.5C 646.5,686.167 645.833,685.5 645.5,684.5C 645.5,683.833 645.5,683.167 645.5,682.5 Z"/></g>
<g><path style="opacity:0.831" fill="#393939" d="M 354.5,677.5 C 354.5,689.167 354.5,700.833 354.5,712.5C 353.833,711.5 353.167,710.5 352.5,709.5C 352.334,700.494 352.5,691.494 353,682.5C 353.198,680.618 353.698,678.952 354.5,677.5 Z"/></g>
<g><path style="opacity:1" fill="#171717" d="M 639.5,677.5 C 637.891,681.143 638.224,684.476 640.5,687.5C 640.5,687.833 640.5,688.167 640.5,688.5C 640.824,695.354 640.491,702.021 639.5,708.5C 639.915,699.703 639.249,691.037 637.5,682.5C 637.556,680.36 638.223,678.694 639.5,677.5 Z"/></g>
<g><path style="opacity:0.914" fill="#535353" d="M 648.5,697.5 C 649.117,697.611 649.617,697.944 650,698.5C 650.814,703.02 650.647,707.354 649.5,711.5C 649.717,706.77 649.383,702.103 648.5,697.5 Z"/></g>
<g><path style="opacity:0.827" fill="#6a6a6a" d="M 667.5,694.5 C 670.167,703.5 670.167,712.5 667.5,721.5C 667.5,712.5 667.5,703.5 667.5,694.5 Z"/></g>
<g><path style="opacity:0.997" fill="#323232" d="M 648.5,690.5 C 651.336,697.388 652.169,704.721 651,712.5C 650.292,713.381 649.458,714.047 648.5,714.5C 648.557,713.391 648.89,712.391 649.5,711.5C 650.647,707.354 650.814,703.02 650,698.5C 649.617,697.944 649.117,697.611 648.5,697.5C 648.5,695.167 648.5,692.833 648.5,690.5 Z"/></g>
<g><path style="opacity:0.945" fill="#3b3b3b" d="M 640.5,688.5 C 643.484,697.293 643.151,705.96 639.5,714.5C 639.5,712.5 639.5,710.5 639.5,708.5C 640.491,702.021 640.824,695.354 640.5,688.5 Z"/></g>
<g><path style="opacity:0.012" fill="#4e4e4e" d="M 352.5,709.5 C 353.167,710.5 353.833,711.5 354.5,712.5C 355.159,715.455 355.492,718.455 355.5,721.5C 353.755,717.8 352.755,713.8 352.5,709.5 Z"/></g>
<g><path style="opacity:0.953" fill="#323232" d="M 419.5,739.5 C 418.833,739.5 418.5,739.167 418.5,738.5C 418.672,737.508 418.338,736.842 417.5,736.5C 416.081,735.549 414.415,735.216 412.5,735.5C 412.216,737.415 412.549,739.081 413.5,740.5C 413.5,741.167 413.5,741.833 413.5,742.5C 412.883,742.389 412.383,742.056 412,741.5C 411.503,739.19 411.337,736.857 411.5,734.5C 413.857,734.337 416.19,734.503 418.5,735C 419.38,736.356 419.714,737.856 419.5,739.5 Z"/></g>
<g><path style="opacity:0.92" fill="#656565" d="M 417.5,736.5 C 416.167,736.5 414.833,736.5 413.5,736.5C 413.5,737.833 413.5,739.167 413.5,740.5C 412.549,739.081 412.216,737.415 412.5,735.5C 414.415,735.216 416.081,735.549 417.5,736.5 Z"/></g>
<g><path style="opacity:0.651" fill="#bcbcbc" d="M 417.5,738.5 C 416.391,738.557 415.391,738.89 414.5,739.5C 415.053,737.448 416.053,737.115 417.5,738.5 Z"/></g>
<g><path style="opacity:0.835" fill="#8b8b8b" d="M 417.5,736.5 C 418.338,736.842 418.672,737.508 418.5,738.5C 418.167,738.5 417.833,738.5 417.5,738.5C 416.053,737.115 415.053,737.448 414.5,739.5C 414.5,740.833 414.5,742.167 414.5,743.5C 414.167,743.5 413.833,743.5 413.5,743.5C 413.5,743.167 413.5,742.833 413.5,742.5C 413.5,741.833 413.5,741.167 413.5,740.5C 413.5,739.167 413.5,737.833 413.5,736.5C 414.833,736.5 416.167,736.5 417.5,736.5 Z"/></g>
<g><path style="opacity:0.955" fill="#3b3b3b" d="M 626.5,742.5 C 626.5,743.833 626.5,745.167 626.5,746.5C 627.5,746.5 628.5,746.5 629.5,746.5C 628.432,747.434 627.099,747.768 625.5,747.5C 625.216,745.585 625.549,743.919 626.5,742.5 Z"/></g>
<g><path style="opacity:0.8" fill="#292929" d="M 665.5,739.5 C 665.02,742.443 664.02,745.11 662.5,747.5C 662.345,744.284 663.345,741.617 665.5,739.5 Z"/></g>
<g><path style="opacity:0.91" fill="#747474" d="M 628.5,741.5 C 628.5,742.5 628.5,743.5 628.5,744.5C 629.5,744.5 630.5,744.5 631.5,744.5C 631.167,745.5 630.5,746.167 629.5,746.5C 628.5,746.5 627.5,746.5 626.5,746.5C 626.5,745.167 626.5,743.833 626.5,742.5C 627.167,742.167 627.833,741.833 628.5,741.5 Z"/></g>
<g><path style="opacity:1" fill="#1e1e1e" d="M 408.5,752.5 C 407.445,748.47 404.778,746.803 400.5,747.5C 400.5,748.833 400.5,750.167 400.5,751.5C 399.387,750.054 399.22,748.387 400,746.5C 405.322,744.914 408.156,746.914 408.5,752.5 Z"/></g>
<g><path style="opacity:1" fill="#3d3d3d" d="M 408.5,752.5 C 408.5,754.167 408.5,755.833 408.5,757.5C 407.662,757.158 407.328,756.492 407.5,755.5C 407.443,754.391 407.11,753.391 406.5,752.5C 406.033,749.703 404.367,748.369 401.5,748.5C 401.5,749.833 401.5,751.167 401.5,752.5C 400.833,752.5 400.5,752.167 400.5,751.5C 400.5,750.167 400.5,748.833 400.5,747.5C 404.778,746.803 407.445,748.47 408.5,752.5 Z"/></g>
<g><path style="opacity:0.929" fill="#626262" d="M 406.5,752.5 C 404.121,751.433 403.121,752.433 403.5,755.5C 403.672,756.492 403.338,757.158 402.5,757.5C 402.634,755.708 402.301,754.042 401.5,752.5C 401.5,751.167 401.5,749.833 401.5,748.5C 404.367,748.369 406.033,749.703 406.5,752.5 Z"/></g>
<g><path style="opacity:0.841" fill="#262626" d="M 413.5,743.5 C 413.833,743.5 414.167,743.5 414.5,743.5C 414.182,748.659 414.848,753.659 416.5,758.5C 415.069,758.119 414.236,757.119 414,755.5C 413.501,751.514 413.334,747.514 413.5,743.5 Z"/></g>
<g><path style="opacity:0.953" fill="#434343" d="M 371.5,753.5 C 375.328,751.639 376.995,752.973 376.5,757.5C 375.833,757.5 375.5,757.167 375.5,756.5C 375.306,754.088 373.973,753.088 371.5,753.5 Z"/></g>
<g><path style="opacity:0.796" fill="#898989" d="M 406.5,752.5 C 407.11,753.391 407.443,754.391 407.5,755.5C 406.167,754.167 404.833,754.167 403.5,755.5C 403.121,752.433 404.121,751.433 406.5,752.5 Z"/></g>
<g><path style="opacity:1" fill="#282828" d="M 364.5,754.5 C 365.833,754.833 367.167,755.167 368.5,755.5C 368.5,755.833 368.5,756.167 368.5,756.5C 366.559,757.679 365.226,757.013 364.5,754.5 Z"/></g>
<g><path style="opacity:0.757" fill="#7b7b7b" d="M 371.5,753.5 C 373.973,753.088 375.306,754.088 375.5,756.5C 373.244,755.562 370.91,755.562 368.5,756.5C 368.5,756.167 368.5,755.833 368.5,755.5C 369.5,754.833 370.5,754.167 371.5,753.5 Z"/></g>
<g><path style="opacity:0.776" fill="#535353" d="M 652.5,757.5 C 651.417,757.461 650.417,757.127 649.5,756.5C 648.482,757.193 647.482,757.859 646.5,758.5C 646.5,757.5 646.5,756.5 646.5,755.5C 649.01,755.054 651.01,755.72 652.5,757.5 Z"/></g>
<g><path style="opacity:0.882" fill="#212121" d="M 417.5,761.5 C 418.677,763.679 419.677,766.013 420.5,768.5C 418.179,766.91 417.179,764.577 417.5,761.5 Z"/></g>
<g><path style="opacity:0.271" fill="#454545" d="M 376.5,771.5 C 379.142,774.192 380.142,777.525 379.5,781.5C 377.899,778.45 376.899,775.116 376.5,771.5 Z"/></g>
<g><path style="opacity:0.91" fill="#3d3d3d" d="M 646.5,770.5 C 646.253,773.854 645.253,776.854 643.5,779.5C 642.925,775.845 643.925,772.845 646.5,770.5 Z"/></g>
<g><path style="opacity:0.275" fill="#272727" d="M 428.5,780.5 C 430.5,781.833 432.167,783.5 433.5,785.5C 430.833,784.833 429.167,783.167 428.5,780.5 Z"/></g>
<g><path style="opacity:0.89" fill="#4e4e4e" d="M 449.5,787.5 C 451.404,787.738 452.738,788.738 453.5,790.5C 452.833,790.5 452.167,790.5 451.5,790.5C 450.833,789.5 450.167,788.5 449.5,787.5 Z"/></g>
<g><path style="opacity:0.008" fill="#292929" d="M 437.5,789.5 C 439.368,790.263 441.035,791.263 442.5,792.5C 439.715,793.084 438.048,792.084 437.5,789.5 Z"/></g>
<g><path style="opacity:0.089" fill="#636363" d="M 451.5,790.5 C 452.167,790.5 452.833,790.5 453.5,790.5C 454.167,790.5 454.5,790.833 454.5,791.5C 454.5,792.833 454.5,794.167 454.5,795.5C 451.941,795.802 449.607,795.468 447.5,794.5C 451.44,795.234 452.773,793.901 451.5,790.5 Z"/></g>
<g><path style="opacity:1" fill="#1f1f1f" d="M 454.5,791.5 C 456.213,792.635 456.88,794.302 456.5,796.5C 453.15,796.665 449.817,796.498 446.5,796C 445.748,795.329 445.414,794.496 445.5,793.5C 446.167,793.833 446.833,794.167 447.5,794.5C 449.607,795.468 451.941,795.802 454.5,795.5C 454.5,794.167 454.5,792.833 454.5,791.5 Z"/></g>
<g><path style="opacity:0.788" fill="#232323" d="M 381.5,795.5 C 383.982,797.503 384.982,800.169 384.5,803.5C 382.98,801.11 381.98,798.443 381.5,795.5 Z"/></g>
<g><path style="opacity:0.745" fill="#5b5b5b" d="M 412.5,846.5 C 414.527,846.338 416.527,846.505 418.5,847C 419.056,847.383 419.389,847.883 419.5,848.5C 416.99,848.073 414.657,847.407 412.5,846.5 Z"/></g>
<g><path style="opacity:0.816" fill="#383838" d="M 598.5,848.5 C 597.833,848.5 597.5,848.167 597.5,847.5C 595.545,846.07 593.879,846.403 592.5,848.5C 592.5,849.167 592.167,849.5 591.5,849.5C 591.33,848.178 591.663,847.011 592.5,846C 594.473,845.505 596.473,845.338 598.5,845.5C 598.5,846.5 598.5,847.5 598.5,848.5 Z"/></g>
<g><path style="opacity:0.755" fill="#7b7b7b" d="M 597.5,847.5 C 595.784,847.629 594.117,847.962 592.5,848.5C 593.879,846.403 595.545,846.07 597.5,847.5 Z"/></g>
<g><path style="opacity:0.937" fill="#3e3e3e" d="M 447.5,855.5 C 449.833,857.167 451.833,859.167 453.5,861.5C 450.065,860.808 448.065,858.808 447.5,855.5 Z"/></g>
<g><path style="opacity:0.875" fill="#535353" d="M 497.5,870.5 C 500.034,870.259 501.7,871.259 502.5,873.5C 500.632,872.737 498.965,871.737 497.5,870.5 Z"/></g>
<g><path style="opacity:0.805" fill="#373737" d="M 509.5,874.5 C 515.42,875.979 521.42,877.146 527.5,878C 528.056,878.383 528.389,878.883 528.5,879.5C 528.167,879.5 527.833,879.5 527.5,879.5C 521.135,878.833 515.135,877.167 509.5,874.5 Z"/></g>
<g><path style="opacity:0.551" fill="#343434" d="M 483.5,881.5 C 485.574,882.514 487.574,883.514 489.5,884.5C 487.801,884.66 486.134,884.494 484.5,884C 483.748,883.329 483.414,882.496 483.5,881.5 Z"/></g>
<g><path style="opacity:0.961" fill="#494949" d="M 527.5,879.5 C 527.833,879.5 528.167,879.5 528.5,879.5C 529.788,881.035 529.788,882.701 528.5,884.5C 525.427,885.35 522.427,886.35 519.5,887.5C 513.491,887.666 507.491,887.499 501.5,887C 500.263,886.768 499.263,886.268 498.5,885.5C 506.189,886.896 513.855,886.73 521.5,885C 525.511,885.185 527.511,883.352 527.5,879.5 Z"/></g>
<g><path style="opacity:0.894" fill="#242424" d="M 494.5,884.5 C 495.959,884.433 497.292,884.766 498.5,885.5C 499.263,886.268 500.263,886.768 501.5,887C 507.491,887.499 513.491,887.666 519.5,887.5C 511.621,888.836 503.621,888.669 495.5,887C 494.748,886.329 494.414,885.496 494.5,884.5 Z"/></g>
<g><path style="opacity:0.086" fill="#373737" d="M 546.5,901.5 C 546.443,902.609 546.11,903.609 545.5,904.5C 544.833,904.833 544.167,905.167 543.5,905.5C 543.738,903.596 544.738,902.262 546.5,901.5 Z"/></g>
<g><path style="opacity:0.012" fill="#3b3b3b" d="M 482.5,902.5 C 485.285,901.916 486.952,902.916 487.5,905.5C 485.632,904.737 483.965,903.737 482.5,902.5 Z"/></g>
<g><path style="opacity:1" fill="#323232" d="M 492.5,906.5 C 494.199,906.34 495.866,906.506 497.5,907C 498.252,907.671 498.586,908.504 498.5,909.5C 496.181,909.008 494.181,908.008 492.5,906.5 Z"/></g>
<g><path style="opacity:0.78" fill="#6a6a6a" d="M 545.5,904.5 C 544.37,907.197 544.37,909.863 545.5,912.5C 544.883,912.389 544.383,912.056 544,911.5C 543.505,909.527 543.338,907.527 543.5,905.5C 544.167,905.167 544.833,904.833 545.5,904.5 Z"/></g>
<g><path style="opacity:0.957" fill="#303030" d="M 503.5,910.5 C 506.491,910.166 508.824,911.166 510.5,913.5C 507.843,913.065 505.509,912.065 503.5,910.5 Z"/></g>
<g><path style="opacity:0.492" fill="#3f3f3f" d="M 520.5,915.5 C 522.833,915.5 525.167,915.5 527.5,915.5C 527.5,916.5 527.5,917.5 527.5,918.5C 525.013,917.677 522.679,916.677 520.5,915.5 Z"/></g>
<g><path style="opacity:0.856" fill="#1a1a1a" d="M 517.5,914.5 C 521.226,914.177 524.893,914.511 528.5,915.5C 528.709,916.086 529.043,916.586 529.5,917C 533.956,916.898 537.956,917.732 541.5,919.5C 536.87,918.771 532.203,918.437 527.5,918.5C 527.5,917.5 527.5,916.5 527.5,915.5C 525.167,915.5 522.833,915.5 520.5,915.5C 519.209,915.737 518.209,915.404 517.5,914.5 Z"/></g>
</svg>
