<svg id="Layer_1" data-name="Layer 1" xmlns="http://www.w3.org/2000/svg" viewBox="0 0 328.89 575.93"><defs><style>.cls-1,.cls-2,.cls-3,.cls-4,.cls-5,.cls-6{fill:#fffdfd;}.cls-1{fill-rule:evenodd;}.cls-1,.cls-3,.cls-4,.cls-5,.cls-6{isolation:isolate;}.cls-3,.cls-4,.cls-5,.cls-6{font-size:29.62px;font-family:FranklinGothic-DemiCond, Franklin Gothic Demi Cond;font-weight:300;}.cls-3{letter-spacing:0.02em;}.cls-4{letter-spacing:0.02em;}.cls-5{letter-spacing:0.04em;}.cls-6{letter-spacing:0.03em;}</style></defs><path class="cls-1" d="M166.15,0a123.49,123.49,0,0,1,55.07,13.77,68.8,68.8,0,0,1,17.57,14.71A240.32,240.32,0,0,0,254.47,48.9l19,6.62a15.7,15.7,0,0,0,1,4.27A48.78,48.78,0,0,1,293,74a8.8,8.8,0,0,1-.48,5.7,251.69,251.69,0,0,1,10,36.08,40.88,40.88,0,0,1-1,14.24q-5.22,20-10.45,39.88-5.31,11.12-11.39,21.81a59.61,59.61,0,0,0-3.8,11.4A8.53,8.53,0,0,1,273,207a22.69,22.69,0,0,0-1.9-8.55,6.18,6.18,0,0,0-2.84,2.85,206.8,206.8,0,0,1-6.54,30.84,9.65,9.65,0,0,1-4.16,5.48,54.89,54.89,0,0,1-23,7.93,89,89,0,0,1-37-3.79,36.58,36.58,0,0,1-16.61-13.77,101.47,101.47,0,0,1-8.58-25.7q-3.56-7.61-10.45-2.86-8.43,53.26-62.2,46.06a70.85,70.85,0,0,1-24.36-7.32,9.62,9.62,0,0,1-3.39-3h0a10.38,10.38,0,0,1-1.72-4q-3.27-16-7.13-31.73-3.21-3.33-4.27,1.91a27.21,27.21,0,0,1,1,9.5,3,3,0,0,1-2.85-1,233,233,0,0,1-10.9-25.63,529.47,529.47,0,0,1-8.55-56A20.7,20.7,0,0,0,28,119.61,53.46,53.46,0,0,1,25.62,113a12.85,12.85,0,0,1,4.27-5.7,43.12,43.12,0,0,1,5.7-18.1A132.81,132.81,0,0,0,60.28,60.77a21.94,21.94,0,0,1,14.24-9.5A70.27,70.27,0,0,1,94,26.11a251.05,251.05,0,0,0,33.24-18c2.62-1,4.52-.13,5.7,2.38A200.8,200.8,0,0,1,166.15,0ZM151,28.48q42.81-3.42,52.7,38l-.94,1A103,103,0,0,0,187,49.9,56.4,56.4,0,0,0,152.86,39a193.39,193.39,0,0,0-34.18,5.23,1.59,1.59,0,0,1-.64-2.15c0-.08.1-.15.16-.23A134.25,134.25,0,0,1,151,28.48Zm50.33,4.75a35,35,0,0,1,20.41,20.9q4.32,14.59-7.58,23.73Q219.94,55.14,202.73,38A8.23,8.23,0,0,1,201.29,33.23Zm35.13,20.9q4.8,1.68,4.75,7.12a17,17,0,0,1-2.38,6.17A129.42,129.42,0,0,1,225,80.24a7.94,7.94,0,0,1-3.8.48q3.42-8,7.13-16.15c1.74-.57,3.48-1.19,5.23-1.9C234.68,59.84,235.62,57,236.42,54.13Zm-113,3.8a39.92,39.92,0,0,1,29.91,13.29,4.84,4.84,0,0,1,.47,2.85,55.87,55.87,0,0,0-30.38-2.37A297,297,0,0,0,86.39,84q-9.73,1.21-1.9-3.8a323.89,323.89,0,0,0,30.87-15.67,14.21,14.21,0,0,1,1.41-4.27c2.31-.82,4.52-1.65,6.66-2.37Zm132.93,7.59a49.56,49.56,0,0,0,12.3,3.32,8.23,8.23,0,0,1,5.7,4.75A3.72,3.72,0,0,1,271.5,75a131.38,131.38,0,0,1-15.2-4.28c-2.37-1.71-2.37-3.46,0-5.22ZM134.81,82.61A14,14,0,0,1,142.4,84a57.75,57.75,0,0,0,32.29,16.14,234,234,0,0,0,68.4-.48q20.29,1.72,27.07,20.89,1.74,29,4.27,57.93a3.56,3.56,0,0,1-3.32,2.85,102.31,102.31,0,0,0-47-6.17A177.46,177.46,0,0,0,196.57,179q-14.81,4.62-29.91,8.07Q151.1,183.61,135.8,179a166.91,166.91,0,0,0-57-2.84,79.62,79.62,0,0,0-14.24,4.75c-3.23,1.17-4.82.06-4.75-3.34q2.39-13.81,5.22-27.53A202.07,202.07,0,0,1,67,123.45a133.57,133.57,0,0,0,31.8-13.77Q117,96.35,134.81,82.61Zm-51.27,7.6h4.75a4.19,4.19,0,0,1-1,3.34,87.69,87.69,0,0,1-18.92,7.57,18.32,18.32,0,0,1-10.43-1A4.36,4.36,0,0,1,56,95.86a27.41,27.41,0,0,1,8.55,1,8.84,8.84,0,0,0,5.7-3.32A90.42,90.42,0,0,0,83.54,90.21Zm15.19,1.91h2.86a5.47,5.47,0,0,1-2.86,5.22,107.61,107.61,0,0,1-31.34,17.08Q55,118.83,46,109.2a4.84,4.84,0,0,1-.48-2.85,49.57,49.57,0,0,0,27.54-1.42A122.19,122.19,0,0,0,98.73,92.11Zm1,91.2a136.73,136.73,0,0,1,41.79,6.18q12.81,7.26,7.12,21.36-10.33,31.23-43.21,28.06-15.76-.42-26-11.61a13,13,0,0,1-1.89-2.59,24.39,24.39,0,0,1-3-9.06,73.94,73.94,0,0,1,1-22.8,14.68,14.68,0,0,1,7.12-6.17,122,122,0,0,1,17-3.38Zm117.75,0a104.38,104.38,0,0,1,33.24,3.33,15,15,0,0,1,8.07,11.89Q264,234,228.87,238.89q-25.26,3.65-40.36-16.61a39,39,0,0,1-5.7-23.74,15.8,15.8,0,0,1,9-9,146.25,146.25,0,0,1,25.6-6.26Zm-152,2.79q5.7.24,3.8,5.22a6.8,6.8,0,0,1-7.6-1.89A18.55,18.55,0,0,1,65.5,186.11Zm199.4,0q5.7.24,3.8,5.22a6.69,6.69,0,0,1-7.59-1.89,18.49,18.49,0,0,1,3.79-3.33Z"/><path class="cls-1" d="M1,237.39H56a5.3,5.3,0,0,1-1.89,5.23q-25.17.94-50.33,0Q-1.06,241.54,1,237.39Z"/><path class="cls-1" d="M1,327.6H56a5.24,5.24,0,0,1-1.89,5.22q-25.17,1-50.33,0Q-1.06,331.76,1,327.6Z"/><path class="cls-1" d="M273.7,327.6h55.08a5.28,5.28,0,0,1-1.9,5.22q-25.17,1-50.33,0Q271.71,331.76,273.7,327.6Z"/><path class="cls-1" d="M273.7,237.39h55.08a5.29,5.29,0,0,1-1.9,5.23q-25.17.94-50.33,0Q271.71,241.54,273.7,237.39Z"/><path class="cls-1" d="M147.16,323.8a54.1,54.1,0,0,1,9.46,2.36q4.49,2.85,9,5.23a102.84,102.84,0,0,1,14.77-7.11,18.72,18.72,0,0,1,10.43,1.88,97.57,97.57,0,0,1,11.9,10.91,66,66,0,0,0,26.11,23.26q19.83,4.8,24.68-15.19A26.26,26.26,0,0,0,245.94,330q5.94-4.53,10.9,1.42a48.91,48.91,0,0,1,8.06,28.5q-.27,25.77-19.93,42.25-17.72,10.61-37,2.85a81.54,81.54,0,0,1-30.86-22.3,72.53,72.53,0,0,0-10.91-13.29,10.29,10.29,0,0,0-5.22,3.79q-18.93,30.54-54.6,35.14a32.53,32.53,0,0,1-25.64-11.4q-21.32-27-10-59.84,4-9.92,14.72-9.5a8,8,0,0,1-.48,3.8q-14.31,13.88.48,27.06a17.66,17.66,0,0,0,17.09,1.9l7.6-3.79q13.74-13.31,26.59-27.54A25.75,25.75,0,0,1,147.16,323.8Z"/><path class="cls-1" d="M163.31,376a8.07,8.07,0,0,1,3.8.47,108.49,108.49,0,0,0,29.43,29.44,77.51,77.51,0,0,0,48.43,5.7,32.05,32.05,0,0,1,6.16,10,92.17,92.17,0,0,1,0,60.77q-2.5,3.62-5.21,0a90.15,90.15,0,0,1-25.64,51.28l-7.6,1a104.22,104.22,0,0,1-21.37,22.8Q184,564.71,188,574.06q-2.85,3.75-6.65,0-41.85-5.82-66.42-39.88a20,20,0,0,1-14.72-11.9,101.89,101.89,0,0,1-10-40.85A17.59,17.59,0,0,1,84.5,481Q69.77,446.77,84,412.11a6.76,6.76,0,0,1,2.37-1.9q39.94,9.72,66.95-20.89Q158.07,382.45,163.31,376Zm77.86,64.57a6,6,0,0,1,3.32,5.7,31.08,31.08,0,0,1-6.17,26.11,3.67,3.67,0,0,1-4.74.47,47.59,47.59,0,0,0,7.59-32.28ZM112,471.89a3,3,0,0,1,2.85,1,68,68,0,0,0,9.91,20.89,30.93,30.93,0,0,1,8.08,7.6,3,3,0,0,1-3.8.47Q113.08,491.34,112,471.89Zm-5.7,10.45a2.74,2.74,0,0,1,2.37,1q11.34,36.92,42.26,59.35a48.79,48.79,0,0,0,22.8,7.59q2.7,1.18,1,3.32-27.67,3.85-45.11-18a118.61,118.61,0,0,1-23.29-53.18Z"/><path class="cls-2" d="M67.23,317.75c0,.45-.61.67-1.8.67s-3.25-.06-5.85-.19S55,318,53.74,318s-3.21.06-5.75.19-4.47.19-5.76.19c-.77,0-1.23-.48-1.35-1.42v-2.32c0-1.26-.56-1.89-1.7-1.89q-10.49,0-12.25.59a3.39,3.39,0,0,0-2.21,3c-.24,1.38-.72,2.08-1.44,2.08-1.25,0-3.1-.06-5.53-.19s-4.3-.19-5.52-.19-3,.06-5.47.19-4.25.19-5.46.19c-.87,0-1.3-.4-1.3-1.18q0-1.42,21.26-64.51A3.73,3.73,0,0,1,22,251.3a2.42,2.42,0,0,1,1.4-.25,36.2,36.2,0,0,1,4.64.42,36.36,36.36,0,0,0,4.66.43,39.25,39.25,0,0,0,8.85-.67,2.55,2.55,0,0,1,.76-.18c.51,0,1.12.53,1.8,1.6.31.48,1.53,3.3,3.69,8.47q2.56,5.94,7.28,18,2.25,6.28,6,19.05t6,19A2.4,2.4,0,0,1,67.23,317.75Z"/><path class="cls-2" d="M122.32,297.09a144.6,144.6,0,0,1-1.57,20.58c-.18,1.13-.64,1.69-1.39,1.69.47,0-1.68-.17-6.48-.52-6.82-.53-12.28-.8-16.35-.8-2.19,0-5.48.06-9.85.19s-7.66.19-9.84.19c-.93,0-1.44-.62-1.53-1.85q.09,1.33.09-3.31V286.07q0-5.16-.45-16.51-.4-10.9-.4-16.45c0-.7.35-1,1.08-1,1.26,0,3.14.06,5.65.18s4.4.19,5.66.19,3.35-.07,6-.21,4.67-.21,6-.21c.48,0,.71.33.71,1v.52q-.59,8-1.31,24-.07,6.17-.08,9.7,0,4,.18,9.27c0,1.23.31,1.84.76,1.84q4.77,0,10.36-.56A84,84,0,0,0,120.85,296a3.62,3.62,0,0,1,.66-.09Q122.32,295.86,122.32,297.09Z"/><path class="cls-2" d="M188.34,253.2q0,5.48-.42,16.43t-.44,16.44v9.27q0,13.14-3.59,17.55-5.44,6.81-26.38,6.81-11.82,0-17.48-2.51a12.51,12.51,0,0,1-7-7.88q-1.34-4.21-1.35-13.88V286q0-5.49-.43-16.49T130.81,253c0-.66.36-1,1.08-1,2.22,0,5.57,0,10.05.09s7.82.1,10,.1h2.21q1.53.14,1.53,1,0,5.45-.48,16.36t-.47,16.36c0,.42,0,1.12,0,2.13s0,1.79,0,2.32q0,9.14,5.35,9.13,4.35,0,4.35-7,0-6.42-.38-19.34t-.38-19.28c0-.94.25-1.42.76-1.46a42.62,42.62,0,0,1,5.65-.05l5.85.14c1.25,0,3.14-.06,5.65-.19s4.41-.18,5.65-.18A1,1,0,0,1,188.34,253.2Z"/><path class="cls-2" d="M257.6,317.9c0,.35-.4.52-1.2.52q-2,0-5.87-.19t-5.82-.19c-1.26,0-3.13.06-5.6.19s-4.33.19-5.55.19a2,2,0,0,1-2-1.18q-.81-2.13-2.33-6.44-1.5-3.89-4.23-11.77c-.43-1.36-.81-2-1.17-2s-.41.51-.41,1.55c0,2.15.21,5.36.61,9.66s.61,7.43.61,9.46c0,.72-.3,1.08-.94,1.08a8.51,8.51,0,0,1-1.13-.14,87.61,87.61,0,0,0-11.68-.57c-1.14,0-2.83.06-5.14.19s-4,.19-5.16.19c-1,0-1.48-.46-1.48-1.37q0-5.3.54-15.92t.54-15.91q0-13.52-1.26-31.41l0-.65a.91.91,0,0,1,.68-1.08h1.88q4.9,0,14.78-.14c6.59-.1,11.53-.14,14.84-.15q10.51,0,17.35,4.69,7.95,5.53,8,16a27,27,0,0,1-1.88,11,21.58,21.58,0,0,1-6.95,7.93c-.72.54-1.08,1.06-1.08,1.57s1.88,4.53,5.58,12.48S257.6,317.56,257.6,317.9Z"/><path class="cls-2" d="M328.89,317.75c0,.45-.6.67-1.8.67s-3.23-.06-5.84-.19-4.55-.19-5.84-.19-3.21.06-5.76.19-4.47.19-5.75.19c-.78,0-1.23-.48-1.35-1.42v-2.32q0-1.89-1.71-1.89-10.47,0-12.25.59a3.4,3.4,0,0,0-2.2,3c-.24,1.38-.72,2.08-1.43,2.08-1.26,0-3.1-.06-5.53-.19s-4.28-.19-5.54-.19-3,.06-5.46.19-4.26.19-5.46.19c-.87,0-1.31-.4-1.31-1.18q0-1.42,21.27-64.51a3.73,3.73,0,0,1,.72-1.45,2.39,2.39,0,0,1,1.39-.25,36.19,36.19,0,0,1,4.65.42,36.53,36.53,0,0,0,4.66.43,39.25,39.25,0,0,0,8.85-.67,2.48,2.48,0,0,1,.76-.18c.51,0,1.11.53,1.8,1.6q.45.72,3.68,8.47,2.58,5.94,7.29,18,2.24,6.28,6,19.05t6,18.95A2.55,2.55,0,0,1,328.89,317.75Z"/><text class="cls-3" transform="translate(278.82 364.32) scale(0.77 1)">2022</text><text class="cls-4" transform="translate(1.88 364.32) scale(0.77 1)">E</text><text class="cls-5" transform="translate(13.18 364.32) scale(0.77 1)">S</text><text class="cls-6" transform="translate(25.77 364.32) scale(0.77 1)">T</text><text class="cls-4" transform="translate(35.35 364.32) scale(0.77 1)">O</text></svg>