<svg id="Layer_1" data-name="Layer 1" xmlns="http://www.w3.org/2000/svg" width="349.45" height="606.46" viewBox="0 0 349.45 606.46"><defs><style>.cls-1,.cls-2,.cls-3,.cls-4,.cls-5,.cls-6,.cls-9{fill:#fff;}.cls-1,.cls-2,.cls-3,.cls-4,.cls-9{fill-rule:evenodd;}.cls-1,.cls-2,.cls-3,.cls-4{isolation:isolate;}.cls-1{opacity:0.94;}.cls-2{opacity:0.78;}.cls-3{opacity:0.97;}.cls-4{opacity:0.98;}.cls-5{font-size:102px;font-family:BerlinSansFBDemi-Bold, Berlin Sans FB Demi;font-weight:700;letter-spacing:0.04em;}.cls-6{font-size:24px;font-family:FranklinGothic-DemiCond, Franklin Gothic Demi Cond;font-weight:300;letter-spacing:0.02em;}.cls-7{letter-spacing:0.04em;}.cls-8{letter-spacing:0.03em;}</style></defs><path class="cls-1" d="M175,0a130.1,130.1,0,0,1,58,14.5A72.08,72.08,0,0,1,251.5,30,257.91,257.91,0,0,0,268,51.5l20,7a16.38,16.38,0,0,0,1,4.5,51.42,51.42,0,0,1,19.5,15,9.33,9.33,0,0,1-.5,6,266.33,266.33,0,0,1,10.5,38,42.86,42.86,0,0,1-1,15q-5.5,21-11,42-5.6,11.69-12,23a63.09,63.09,0,0,0-4,12,8.81,8.81,0,0,1-3,4,24,24,0,0,0-2-9,6.6,6.6,0,0,0-3,3,216.58,216.58,0,0,1-6.91,32.42,10.18,10.18,0,0,1-4.38,5.77A57.85,57.85,0,0,1,247,258.5a93.64,93.64,0,0,1-39-4A38.61,38.61,0,0,1,190.5,240a107.2,107.2,0,0,1-9-27q-3.74-8-11-3-8.87,56.08-65.5,48.5a74.67,74.67,0,0,1-25.61-7.73,10,10,0,0,1-3.57-3.12h0A10.93,10.93,0,0,1,74,243.43Q70.56,226.62,66.5,210q-3.39-3.52-4.5,2a28.77,28.77,0,0,1,1,10,3.08,3.08,0,0,1-3-1,241,241,0,0,1-11.5-27,554.19,554.19,0,0,1-9-59,21.88,21.88,0,0,0-10-9,56.05,56.05,0,0,1-2.5-7,13.62,13.62,0,0,1,4.5-6,45.52,45.52,0,0,1,6-19,139.69,139.69,0,0,0,26-30,23.11,23.11,0,0,1,15-10A73.91,73.91,0,0,1,99,27.5a266.61,266.61,0,0,0,35-19c2.76-1,4.76-.14,6,2.5A212.07,212.07,0,0,1,175,0ZM159,30q45.08-3.62,55.5,40l-1,1A108.36,108.36,0,0,0,197,52.5,59.43,59.43,0,0,0,161,41a204.38,204.38,0,0,0-36,5.5,1.66,1.66,0,0,1-.5-2.5A140.37,140.37,0,0,1,159,30Zm53,5a36.89,36.89,0,0,1,21.5,22q4.55,15.38-8,25,6.13-23.94-12-42A8.77,8.77,0,0,1,212,35Zm37,22q5.06,1.78,5,7.5a18,18,0,0,1-2.5,6.5A137.83,137.83,0,0,1,237,84.5a8.39,8.39,0,0,1-4,.5q3.58-8.46,7.5-17,2.75-.9,5.5-2Q247.74,61.53,249,57ZM130,61a42.07,42.07,0,0,1,31.5,14,5,5,0,0,1,.5,3,58.82,58.82,0,0,0-32-2.5,315.63,315.63,0,0,0-39,13q-10.26,1.34-2-4A340.44,340.44,0,0,0,121.5,68a15.1,15.1,0,0,1,1.5-4.5C125.43,62.6,127.76,61.76,130,61Zm140,8a52.74,52.74,0,0,0,13,3.5,8.67,8.67,0,0,1,6,5,3.93,3.93,0,0,1-3,1.5,137,137,0,0,1-16-4.5Q266.22,71.79,270,69ZM142,87a14.71,14.71,0,0,1,8,1.5,60.8,60.8,0,0,0,34,17,246.44,246.44,0,0,0,72-.5q21.35,1.8,28.5,22,1.83,30.57,4.5,61a3.74,3.74,0,0,1-3.5,3,107.91,107.91,0,0,0-49.5-6.5,186.46,186.46,0,0,0-29,4q-15.6,4.86-31.5,8.5-16.38-3.66-32.5-8.5a175.93,175.93,0,0,0-60-3,85.19,85.19,0,0,0-15,5q-5.11,1.86-5-3.5,2.52-14.55,5.5-29a211.87,211.87,0,0,1,2-28A139.6,139.6,0,0,0,104,115.5Q123.28,101.46,142,87ZM88,95h5a4.38,4.38,0,0,1-1,3.5,92.15,92.15,0,0,1-20,8,19.33,19.33,0,0,1-11-1,4.6,4.6,0,0,1-2-4.5,29.09,29.09,0,0,1,9,1,9.26,9.26,0,0,0,6-3.5A94.89,94.89,0,0,0,88,95Zm16,2h3a5.71,5.71,0,0,1-3,5.5,113.67,113.67,0,0,1-33,18q-13.09,4.64-22.5-5.5a5,5,0,0,1-.5-3,52.16,52.16,0,0,0,29-1.5A128.11,128.11,0,0,0,104,97Zm1,96a144.15,144.15,0,0,1,44,6.5q13.5,7.65,7.5,22.5-10.89,32.87-45.5,29.5-16.6-.45-27.38-12.23a14.89,14.89,0,0,1-2-2.72A25.59,25.59,0,0,1,78.5,227a78.19,78.19,0,0,1,1-24,15.43,15.43,0,0,1,7.5-6.5A126.94,126.94,0,0,1,105,193Zm124,0a109.75,109.75,0,0,1,35,3.5,15.8,15.8,0,0,1,8.5,12.5Q278,246.37,241,251.5q-26.58,3.83-42.5-17.5a41.13,41.13,0,0,1-6-25,16.64,16.64,0,0,1,9.5-9.5A153.71,153.71,0,0,1,229,193ZM69,196q6,.25,4,5.5a7.17,7.17,0,0,1-8-2A19.22,19.22,0,0,1,69,196Zm210,0q6,.25,4,5.5a7.06,7.06,0,0,1-8-2A19.22,19.22,0,0,1,279,196Z"/><path class="cls-2" d="M1,250H59a5.55,5.55,0,0,1-2,5.5q-26.51,1-53,0Q-1.1,254.38,1,250Z"/><path class="cls-2" d="M1,345H59a5.55,5.55,0,0,1-2,5.5q-26.51,1-53,0Q-1.1,349.38,1,345Z"/><path class="cls-2" d="M288.26,345h58a5.55,5.55,0,0,1-2,5.5q-26.5,1-53,0Q286.16,349.38,288.26,345Z"/><path class="cls-2" d="M288.26,250h58a5.55,5.55,0,0,1-2,5.5q-26.5,1-53,0Q286.16,254.38,288.26,250Z"/><path class="cls-3" d="M155,341a55.22,55.22,0,0,1,10,2.5q4.73,3,9.5,5.5a110.21,110.21,0,0,1,15.5-7.5,19.79,19.79,0,0,1,11,2A101.32,101.32,0,0,1,213.5,355,69.57,69.57,0,0,0,241,379.5q20.88,5.06,26-16a27.69,27.69,0,0,0-8-16q6.27-4.77,11.5,1.5a51.61,51.61,0,0,1,8.5,30q-.3,27.17-21,44.5-18.65,11.17-39,3A85.77,85.77,0,0,1,186.5,403,77.82,77.82,0,0,0,175,389a11,11,0,0,0-5.5,4q-19.94,32.17-57.5,37a34.22,34.22,0,0,1-27-12q-22.43-28.47-10.5-63,4.19-10.47,15.5-10a8.39,8.39,0,0,1-.5,4q-15.07,14.64.5,28.5a18.59,18.59,0,0,0,18,2l8-4q14.46-14,28-29A27.25,27.25,0,0,1,155,341Z"/><path class="cls-4" d="M172,396a8.39,8.39,0,0,1,4,.5,114.32,114.32,0,0,0,31,31,81.57,81.57,0,0,0,51,6,34.06,34.06,0,0,1,6.5,10.5,97.13,97.13,0,0,1,0,64q-2.65,3.81-5.5,0a95.06,95.06,0,0,1-27,54l-8,1a109.51,109.51,0,0,1-22.5,24q-7.73,7.65-3.5,17.5-3,3.93-7,0-44.07-6.12-70-42A21.08,21.08,0,0,1,105.5,550,107.38,107.38,0,0,1,95,507a18.63,18.63,0,0,1-6-.5q-15.52-36-.5-72.5a7.24,7.24,0,0,1,2.5-2q42.06,10.23,70.5-22Q166.5,402.76,172,396Zm82,68a6.32,6.32,0,0,1,3.5,6,32.69,32.69,0,0,1-6.5,27.5,3.88,3.88,0,0,1-5,.5A50,50,0,0,0,254,464ZM118,497a3.08,3.08,0,0,1,3,1,71.44,71.44,0,0,0,10.5,22,32.36,32.36,0,0,1,8.5,8,3.2,3.2,0,0,1-4,.5Q119.1,517.44,118,497Zm-6,11a2.85,2.85,0,0,1,2.5,1q11.93,38.88,44.5,62.5a51.36,51.36,0,0,0,24,8c1.9.83,2.24,2,1,3.5q-29.15,4.05-47.5-19A124.8,124.8,0,0,1,112,508Z"/><text class="cls-5" transform="translate(0 335.33)">ALURA</text><text class="cls-6" transform="translate(289 383.67) scale(1 1.3)">2022</text><text class="cls-6" transform="translate(2 383.67) scale(1 1.3)">E<tspan class="cls-7" x="11.91" y="0">S</tspan><tspan class="cls-8" x="25.16" y="0">T</tspan><tspan x="35.25" y="0">O</tspan></text><polygon class="cls-9" points="22.29 311.05 34.03 281.44 49.8 312.33 22.29 311.05"/><polygon class="cls-9" points="222.97 302.63 221.44 276.33 249.27 276.33 252.33 296.88 246.97 304 222.97 302.63"/><polyline class="cls-9" points="298.29 310.29 310.29 277.61 324.15 313.35 298.29 312.33"/></svg>