<?xml version="1.0" encoding="utf-8"?>
<!-- Generator: Adobe Illustrator 26.3.1, SVG Export Plug-In . SVG Version: 6.00 Build 0)  -->
<svg version="1.1" id="Layer_1" xmlns="http://www.w3.org/2000/svg" xmlns:xlink="http://www.w3.org/1999/xlink" x="0px" y="0px"
	 viewBox="0 0 349.1 580.9" style="enable-background:new 0 0 349.1 580.9;" xml:space="preserve">
<style type="text/css">
	.st0{fill-rule:evenodd;clip-rule:evenodd;}
	.st1{enable-background:new    ;}
</style>
<g>
	<path class="st0" d="M176.3,2.5c19.2,0.3,38,5,55.1,13.8C238,20.2,244,25.2,249,31c4.9,7.1,10.1,13.9,15.7,20.4l19,6.6
		c0.1,1.5,0.5,2.9,1,4.3c7.2,3.2,13.6,8.1,18.5,14.2c0.5,1.9,0.3,3.9-0.5,5.7c4.2,11.8,7.5,23.8,10,36.1c0.5,4.8,0.2,9.6-1,14.2
		c-3.5,13.3-7,26.6-10.4,39.9c-3.5,7.4-7.3,14.7-11.4,21.8c-1.6,3.7-2.9,7.5-3.8,11.4c-0.6,1.5-1.6,2.8-2.8,3.8
		c-0.1-2.9-0.7-5.8-1.9-8.5c-1.2,0.6-2.2,1.6-2.8,2.8c-1.4,10.4-3.6,20.7-6.5,30.8c-0.7,2.3-2.2,4.2-4.2,5.5c-7,4.3-14.8,7-23,7.9
		c-12.5,1.4-25.1,0.1-37-3.8c-6.8-2.8-12.6-7.6-16.6-13.8c-4-8.1-6.9-16.8-8.6-25.7c-2.4-5.1-5.8-6-10.4-2.9
		c-5.6,35.5-26.4,50.9-62.2,46.1c-8.5-1-16.7-3.4-24.4-7.3c-1.4-0.7-2.5-1.7-3.4-3l0,0c-0.9-1.2-1.4-2.6-1.7-4
		c-2.2-10.6-4.6-21.2-7.1-31.7c-2.1-2.2-3.6-1.6-4.3,1.9c0.9,3.1,1.2,6.3,1,9.5c-1.1,0.2-2.1-0.2-2.8-1c-4.1-8.3-7.8-16.9-10.9-25.6
		c-3.8-18.5-6.7-37.2-8.5-56c-2.2-3.8-5.5-6.8-9.5-8.5c-0.9-2.1-1.7-4.3-2.4-6.6c0.9-2.3,2.3-4.2,4.3-5.7c0.5-6.4,2.5-12.6,5.7-18.1
		c9.5-8.3,17.8-17.8,24.7-28.5c3.3-5,8.4-8.4,14.2-9.5c4.5-9.8,11.1-18.4,19.5-25.2c11.5-5.2,22.6-11.2,33.2-18
		c2.6-1,4.5-0.1,5.7,2.4C153.8,8.5,164.9,5,176.3,2.5z M161.1,31c28.5-2.3,46.1,10.4,52.7,38l-0.9,1c-4.5-6.4-9.8-12.3-15.7-17.6
		c-9.9-7.3-21.9-11.1-34.2-10.9c-11.5,0.7-23,2.5-34.2,5.2c-0.8-0.4-1-1.4-0.6-2.1c0-0.1,0.1-0.2,0.2-0.2
		C138.6,38.5,149.6,34,161.1,31z M211.4,35.7c9.5,3.7,17,11.3,20.4,20.9c2.9,9.7,0.3,17.6-7.6,23.7c3.9-15.1,0.1-28.4-11.4-39.9
		C211.9,39.1,211.4,37.4,211.4,35.7z M246.5,56.6c3.2,1.1,4.8,3.5,4.7,7.1c-0.4,2.2-1.2,4.3-2.4,6.2c-4.3,4.6-8.9,8.9-13.8,12.8
		c-1.2,0.5-2.5,0.6-3.8,0.5c2.3-5.4,4.6-10.7,7.1-16.1c1.7-0.6,3.5-1.2,5.2-1.9C244.8,62.3,245.7,59.5,246.5,56.6z M133.5,60.4
		c11.4,0,22.3,4.8,29.9,13.3c0.4,0.9,0.6,1.9,0.5,2.8c-9.7-3.6-20.2-4.4-30.4-2.4c-12.6,3.3-25,7.4-37,12.3
		c-6.5,0.8-7.1-0.5-1.9-3.8c10.6-4.7,20.9-9.9,30.9-15.7c0.2-1.5,0.7-2.9,1.4-4.3C129.2,62,131.4,61.2,133.5,60.4L133.5,60.4z
		 M266.4,68c3.9,1.6,8.1,2.7,12.3,3.3c2.5,0.6,4.7,2.4,5.7,4.7c-0.7,0.9-1.7,1.4-2.8,1.4c-5.1-1.1-10.2-2.5-15.2-4.3
		C264,71.5,264,69.8,266.4,68L266.4,68z M144.9,85.1c2.6-0.2,5.2,0.2,7.6,1.4c8.8,8.7,20.1,14.3,32.3,16.1c22.7,3.2,45.7,3,68.4-0.5
		c13.5,1.1,22.5,8.1,27.1,20.9c1.2,19.4,2.6,38.7,4.3,57.9c-0.3,1.6-1.7,2.8-3.3,2.9c-15-5.7-31.1-7.8-47-6.2
		c-9.3,0.5-18.5,1.8-27.5,3.8c-9.9,3.1-19.8,5.8-29.9,8.1c-10.4-2.3-20.7-5-30.9-8.1c-18.7-4.2-38-5.2-57-2.8
		c-4.9,1.1-9.7,2.7-14.2,4.7c-3.2,1.2-4.8,0.1-4.7-3.3c1.6-9.2,3.3-18.4,5.2-27.5c0-8.9,0.7-17.8,1.9-26.6
		c11.2-3.2,21.8-7.8,31.8-13.8C121.1,103.3,133.1,94.3,144.9,85.1z M93.7,92.7h4.7c0.2,1.2-0.2,2.4-1,3.3c-6,3.3-12.3,5.8-18.9,7.6
		c-3.5,0.7-7.1,0.3-10.4-1c-1.4-0.9-2.2-2.6-1.9-4.3c2.9-0.1,5.8,0.2,8.5,1C77,99,79,97.8,80.4,96C84.9,95.3,89.3,94.2,93.7,92.7z
		 M108.8,94.6h2.9c0.2,2.2-1,4.2-2.9,5.2c-9.4,7.4-20,13.2-31.3,17.1c-8.3,2.9-15.4,1.2-21.4-5.2c-0.4-0.9-0.6-1.9-0.5-2.8
		c9.1,2.1,18.7,1.6,27.5-1.4C92.2,104.2,100.8,99.9,108.8,94.6L108.8,94.6z M109.8,185.8c14.2-0.1,28.3,2,41.8,6.2
		c8.5,4.8,10.9,12,7.1,21.4c-6.9,20.8-21.3,30.2-43.2,28.1c-10.5-0.3-19.2-4.1-26-11.6c-0.7-0.8-1.4-1.7-1.9-2.6
		c-1.6-2.8-2.6-5.9-3-9.1c-0.9-7.6-0.5-15.3,1-22.8c1.6-2.8,4.1-5,7.1-6.2C98.4,187.7,104,186.5,109.8,185.8L109.8,185.8z
		 M227.6,185.8c11.2-0.7,22.4,0.4,33.2,3.3c4.5,2.3,7.6,6.8,8.1,11.9c3.5,23.7-6.5,37.1-29.9,40.3c-16.8,2.4-30.3-3.1-40.4-16.6
		c-4.4-7.1-6.4-15.4-5.7-23.7c1.6-4.1,4.9-7.4,9-9C210.3,189.2,218.8,187.1,227.6,185.8L227.6,185.8z M75.6,188.6
		c3.8,0.2,5.1,1.9,3.8,5.2c-2.7,1-5.7,0.3-7.6-1.9C72.9,190.7,74.2,189.5,75.6,188.6z M275,188.6c3.8,0.2,5.1,1.9,3.8,5.2
		c-2.7,1.1-5.7,0.3-7.6-1.9C272.3,190.7,273.6,189.5,275,188.6L275,188.6z"/>
	<path class="st0" d="M11.1,239.9h55c0.4,2-0.3,4-1.9,5.2c-16.8,0.6-33.6,0.6-50.3,0C10.7,244.4,9.7,242.7,11.1,239.9z"/>
	<path class="st0" d="M11.1,330.1h55c0.4,2-0.3,4-1.9,5.2c-16.8,0.7-33.6,0.7-50.3,0C10.7,334.6,9.7,332.9,11.1,330.1z"/>
	<path class="st0" d="M283.8,330.1h55.1c0.4,2-0.3,4-1.9,5.2c-16.8,0.7-33.5,0.7-50.3,0C283.4,334.6,282.5,332.9,283.8,330.1z"/>
	<path class="st0" d="M283.8,239.9h55.1c0.4,2-0.3,4-1.9,5.2c-16.8,0.6-33.5,0.6-50.3,0C283.4,244.4,282.5,242.7,283.8,239.9z"/>
	<path class="st0" d="M157.3,326.3c3.2,0.5,6.4,1.3,9.5,2.4c3,1.9,6,3.6,9,5.2c4.7-2.8,9.7-5.1,14.8-7.1c3.6-0.4,7.2,0.3,10.4,1.9
		c4.3,3.3,8.2,6.9,11.9,10.9c6.5,10,15.5,18,26.1,23.3c13.2,3.2,21.4-1.9,24.7-15.2c-0.8-5.8-3.5-11.1-7.6-15.2
		c4-3,7.6-2.5,10.9,1.4c5.6,8.4,8.4,18.4,8.1,28.5c-0.2,17.2-6.8,31.3-19.9,42.3c-11.8,7.1-24.2,8-37,2.8
		c-11.9-4.9-22.5-12.5-30.9-22.3c-3.1-4.8-6.8-9.3-10.9-13.3c-2.1,0.7-3.9,2-5.2,3.8c-12.6,20.4-30.8,32.1-54.6,35.1
		c-9.8,0.3-19.3-3.9-25.6-11.4c-14.2-18-17.5-38-10-59.8c2.6-6.6,7.5-9.8,14.7-9.5c0.2,1.3,0,2.6-0.5,3.8
		c-9.5,9.3-9.4,18.3,0.5,27.1c5,3.5,11.4,4.3,17.1,1.9l7.6-3.8c9.2-8.9,18-18,26.6-27.5C149.9,329,153.4,327.2,157.3,326.3z"/>
	<path class="st0" d="M173.4,378.5c1.3-0.2,2.6,0,3.8,0.5c7.8,11.6,17.8,21.6,29.4,29.4c15.1,7.1,32.1,9.1,48.4,5.7
		c2.6,2.9,4.7,6.3,6.2,10c6.9,19.7,6.9,41.1,0,60.8c-1.7,2.4-3.4,2.4-5.2,0c-2.7,19.4-11.7,37.4-25.6,51.3l-7.6,1
		c-5.9,8.6-13.1,16.3-21.4,22.8c-4.9,4.8-6,10.4-3.3,16.6c-1.9,2.5-4.1,2.5-6.7,0c-27.9-3.9-50-17.2-66.4-39.9
		c-6.6-1.3-12.1-5.7-14.7-11.9c-6.1-12.8-9.5-26.7-10-40.9c-1.9,0.2-3.8,0-5.7-0.5c-9.8-22.8-10-45.7-0.5-68.8
		c0.6-0.8,1.4-1.5,2.4-1.9c26.6,6.5,48.9-0.5,66.9-20.9C166.6,387.2,169.9,382.8,173.4,378.5z M251.3,443.1c2.1,1.1,3.4,3.3,3.3,5.7
		c2,9.2-0.3,18.8-6.2,26.1c-1.2,1.3-3.3,1.5-4.7,0.5C250,465.9,252.7,454.4,251.3,443.1L251.3,443.1z M122.1,474.4
		c1.1-0.2,2.2,0.2,2.9,1c2.1,7.5,5.4,14.5,9.9,20.9c3.1,2,5.9,4.6,8.1,7.6c-1,1-2.6,1.2-3.8,0.5
		C128.5,497.3,122.8,487.4,122.1,474.4z M116.4,484.8c0.9-0.1,1.8,0.3,2.4,1c7.6,24.6,21.6,44.4,42.3,59.3c6.8,4.4,14.7,7,22.8,7.6
		c1.8,0.8,2.1,1.9,1,3.3c-18.5,2.6-33.5-3.4-45.1-18C127.7,522.5,119.7,504.3,116.4,484.8L116.4,484.8z"/>
	<g>
		<path d="M77.3,320.3c0,0.4-0.6,0.7-1.8,0.7c-1.2,0-3.2-0.1-5.8-0.2s-4.6-0.2-5.8-0.2s-3.2,0.1-5.8,0.2s-4.5,0.2-5.8,0.2
			c-0.8,0-1.2-0.5-1.3-1.4v-2.3c0-1.3-0.6-1.9-1.7-1.9c-7,0-11.1,0.2-12.2,0.6c-1.2,0.4-2.1,1.6-2.2,3c-0.2,1.4-0.7,2.1-1.4,2.1
			c-1.3,0-3.1-0.1-5.5-0.2s-4.3-0.2-5.5-0.2s-3,0.1-5.5,0.2s-4.3,0.2-5.5,0.2c-0.9,0-1.3-0.4-1.3-1.2c0-1,7.1-22.5,21.3-64.5
			c0.1-0.5,0.4-1,0.7-1.4c0.4-0.2,0.9-0.3,1.4-0.3c1.6,0,3.1,0.2,4.6,0.4s3.1,0.4,4.7,0.4c3,0.1,5.9-0.1,8.9-0.7
			c0.2-0.1,0.5-0.2,0.8-0.2c0.5,0,1.1,0.5,1.8,1.6c0.3,0.5,1.5,3.3,3.7,8.5c1.7,4,4.1,10,7.3,18c1.5,4.2,3.5,10.5,6,19.1
			c2.5,8.5,4.5,14.8,6,19C77.3,319.9,77.3,320.1,77.3,320.3z"/>
		<path d="M132.4,299.6c0,6.9-0.6,13.8-1.6,20.6c-0.2,1.1-0.6,1.7-1.4,1.7c0.5,0-1.7-0.2-6.5-0.5c-6.8-0.5-12.3-0.8-16.4-0.8
			c-2.2,0-5.5,0.1-9.8,0.2S89,321,86.9,321c-0.9,0-1.4-0.6-1.5-1.8c0.1,0.9,0.1-0.2,0.1-3.3v-27.2c0-3.4-0.2-8.9-0.5-16.5
			c-0.3-7.3-0.4-12.8-0.4-16.5c0-0.7,0.4-1,1.1-1c1.3,0,3.1,0.1,5.7,0.2s4.4,0.2,5.7,0.2c1.3,0,3.4-0.1,6-0.2c2.7-0.1,4.7-0.2,6-0.2
			c0.5,0,0.7,0.3,0.7,1v0.5c-0.4,5.3-0.8,13.3-1.3,24c-0.1,4.1-0.1,7.3-0.1,9.7c0,2.6,0.1,5.7,0.2,9.3c0.1,1.2,0.3,1.8,0.8,1.8
			c3.2,0,6.6-0.2,10.4-0.6s7.5-1,11.2-1.8c0.2-0.1,0.4-0.1,0.7-0.1C132.2,298.4,132.4,298.8,132.4,299.6z"/>
		<path d="M198.5,255.7c0,3.7-0.1,9.1-0.4,16.4c-0.3,7.3-0.4,12.8-0.4,16.4c0,1,0,2.6,0,4.6c0,2.1,0,3.6,0,4.6
			c0,8.8-1.2,14.6-3.6,17.5c-3.6,4.5-12.4,6.8-26.4,6.8c-7.9,0-13.7-0.8-17.5-2.5c-3.3-1.4-5.9-4.3-7-7.9c-0.9-2.8-1.3-7.4-1.3-13.9
			c0-0.9,0-2.4,0-4.5v-5c0-3.7-0.1-9.2-0.4-16.5c-0.3-7.3-0.4-12.8-0.4-16.5c0-0.7,0.4-1,1.1-1c2.2,0,5.6,0,10.1,0.1s7.8,0.1,10,0.1
			c1.9,0,2.6,0,2.2,0c1,0.1,1.5,0.4,1.5,1c0,3.6-0.2,9.1-0.5,16.4s-0.5,12.7-0.5,16.4c0,0.4,0,1.1,0,2.1s0,1.8,0,2.3
			c0,6.1,1.8,9.1,5.4,9.1c2.9,0,4.4-2.3,4.4-7c0-4.3-0.1-10.7-0.4-19.3c-0.3-8.6-0.4-15-0.4-19.3c0-0.9,0.3-1.4,0.8-1.5
			c1.9-0.1,3.8-0.2,5.7,0l5.8,0.1c1.3,0,3.1-0.1,5.7-0.2c2.5-0.1,4.4-0.2,5.7-0.2C198.1,254.6,198.5,254.9,198.5,255.7z"/>
		<path d="M267.7,320.4c0,0.3-0.4,0.5-1.2,0.5c-1.3,0-3.3-0.1-5.9-0.2s-4.5-0.2-5.8-0.2s-3.1,0.1-5.6,0.2s-4.3,0.2-5.5,0.2
			c-0.8,0.1-1.7-0.4-2-1.2c-0.5-1.4-1.3-3.6-2.3-6.4c-1-2.6-2.4-6.5-4.2-11.8c-0.4-1.4-0.8-2-1.2-2s-0.4,0.5-0.4,1.6
			c0,2.2,0.2,5.4,0.6,9.7c0.4,4.3,0.6,7.4,0.6,9.5c0,0.7-0.3,1.1-0.9,1.1c-0.4,0-0.8-0.1-1.1-0.1c-3.9-0.4-7.8-0.6-11.7-0.6
			c-1.1,0-2.8,0.1-5.1,0.2s-4,0.2-5.2,0.2c-1,0-1.5-0.5-1.5-1.4c0-3.5,0.2-8.8,0.5-15.9c0.4-7.1,0.5-12.4,0.5-15.9
			c0-9-0.4-19.5-1.3-31.4v-0.7c-0.1-0.5,0.2-1,0.7-1.1c0.1,0,0.1,0,0.2,0h1.7c3.3,0,8.2,0,14.8-0.1s11.5-0.1,14.8-0.1
			c7,0,12.8,1.6,17.3,4.7c5.3,3.7,8,9,8,16c0,4.5-0.6,8.2-1.9,11c-1.7,3.2-4,5.9-6.9,7.9c-0.7,0.5-1.1,1.1-1.1,1.6s1.9,4.5,5.6,12.5
			C265.8,315.9,267.7,320.1,267.7,320.4z"/>
		<path d="M339,320.3c0,0.4-0.6,0.7-1.8,0.7s-3.2-0.1-5.8-0.2c-2.6-0.1-4.6-0.2-5.8-0.2s-3.2,0.1-5.8,0.2c-2.6,0.1-4.5,0.2-5.7,0.2
			c-0.8,0-1.2-0.5-1.4-1.4v-2.3c0-1.3-0.6-1.9-1.7-1.9c-7,0-11.1,0.2-12.2,0.6c-1.2,0.4-2.1,1.6-2.2,3c-0.2,1.4-0.7,2.1-1.4,2.1
			c-1.3,0-3.1-0.1-5.5-0.2s-4.3-0.2-5.5-0.2s-3,0.1-5.5,0.2c-2.4,0.1-4.3,0.2-5.5,0.2c-0.9,0-1.3-0.4-1.3-1.2
			c0-1,7.1-22.5,21.3-64.5c0.1-0.5,0.4-1,0.7-1.4c0.4-0.2,0.9-0.3,1.4-0.3c1.6,0,3.1,0.2,4.7,0.4c1.5,0.2,3.1,0.4,4.7,0.4
			c3,0.1,5.9-0.1,8.8-0.7c0.2-0.1,0.5-0.2,0.8-0.2c0.5,0,1.1,0.5,1.8,1.6c0.3,0.5,1.5,3.3,3.7,8.5c1.7,4,4.1,10,7.3,18
			c1.5,4.2,3.5,10.5,6,19.1c2.5,8.5,4.5,14.8,6,18.9C339,319.8,339,320.1,339,320.3z"/>
	</g>
	<g class="st1">
		<path d="M292.6,354l-3-0.8c0.5-4.3,2.2-6.5,5-6.5c1.5,0,2.7,0.6,3.5,1.7c0.8,1.1,1.2,2.5,1.2,4.1c0,1.7-0.4,3.3-1.3,4.9
			s-2.6,3.4-5,5.6h6.6l-0.2,3.9h-9.7V363c2.8-3.1,4.5-5.3,5.2-6.6c0.7-1.3,1-2.5,1-3.6c0-1.6-0.5-2.5-1.4-2.5c-0.6,0-1,0.3-1.3,1
			S292.7,352.8,292.6,354z"/>
		<path d="M311.5,356.7c0,3.6-0.4,6.2-1.2,7.9s-2.1,2.5-3.9,2.5c-1.9,0-3.2-0.9-3.9-2.6c-0.8-1.8-1.1-4.2-1.1-7.3
			c0-3.6,0.4-6.2,1.2-7.9c0.8-1.7,2.1-2.5,3.9-2.5c1.9,0,3.2,0.9,3.9,2.6C311.1,351.2,311.5,353.6,311.5,356.7z M308,357
			c0-3-0.1-4.9-0.3-5.8s-0.6-1.3-1.2-1.3c-0.6,0-1,0.4-1.2,1.1s-0.4,2.7-0.4,6c0,3.2,0.1,5.2,0.4,5.9c0.2,0.7,0.6,1.1,1.2,1.1
			c0.6,0,0.9-0.3,1.2-1C307.8,362.2,308,360.3,308,357z"/>
		<path d="M315.9,354l-3-0.8c0.5-4.3,2.2-6.5,5-6.5c1.5,0,2.7,0.6,3.5,1.7c0.8,1.1,1.2,2.5,1.2,4.1c0,1.7-0.4,3.3-1.3,4.9
			c-0.9,1.6-2.6,3.4-5,5.6h6.6l-0.2,3.9h-9.7V363c2.8-3.1,4.5-5.3,5.2-6.6c0.7-1.3,1-2.5,1-3.6c0-1.6-0.5-2.5-1.4-2.5
			c-0.6,0-1,0.3-1.3,1S316,352.8,315.9,354z"/>
		<path d="M327.6,354l-3-0.8c0.5-4.3,2.2-6.5,5-6.5c1.5,0,2.7,0.6,3.5,1.7c0.8,1.1,1.2,2.5,1.2,4.1c0,1.7-0.4,3.3-1.3,4.9
			s-2.6,3.4-5,5.6h6.6l-0.2,3.9h-9.7V363c2.8-3.1,4.5-5.3,5.2-6.6s1-2.5,1-3.6c0-1.6-0.5-2.5-1.4-2.5c-0.6,0-1,0.3-1.3,1
			S327.7,352.8,327.6,354z"/>
	</g>
	<g>
		<g class="st1">
			<path d="M13.4,347.1h9.2v3.4h-5.9v4.6h4.6v3.4h-4.6v4.9h5.9v3.5h-9.2V347.1z"/>
		</g>
		<g class="st1">
			<path d="M34,351.4l-2.8,1.4c-0.4-1.6-1.1-2.4-2.2-2.4c-0.5,0-0.9,0.2-1.2,0.5c-0.3,0.4-0.4,0.8-0.4,1.3c0,0.6,0.2,1,0.5,1.3
				c0.3,0.3,1,0.8,2.1,1.3c1,0.5,1.8,0.9,2.3,1.4c0.6,0.5,1,1.1,1.4,1.9s0.5,1.7,0.5,2.8c0,1.8-0.5,3.4-1.5,4.5
				c-1,1.2-2.3,1.8-3.9,1.8c-2.8,0-4.5-1.8-5.3-5.4l2.9-1.1c0.4,2,1.2,3,2.4,3c0.6,0,1-0.2,1.4-0.6s0.5-0.9,0.5-1.5
				c0-0.5-0.1-0.9-0.4-1.3s-0.8-0.8-1.7-1.2c-1.2-0.5-2-1-2.6-1.5s-1-1.1-1.4-1.9c-0.4-0.8-0.6-1.7-0.6-2.8c0-1.8,0.4-3.2,1.3-4.4
				c0.9-1.1,2-1.7,3.5-1.7C31.7,346.8,33.4,348.3,34,351.4z"/>
		</g>
		<g class="st1">
			<path d="M35.6,347.1h9.5v3.7H42v16h-3.3v-16h-3V347.1z"/>
		</g>
		<g class="st1">
			<path d="M57.4,356.9c0,6.8-1.8,10.2-5.5,10.2c-1.8,0-3.2-0.9-4.1-2.6c-0.9-1.7-1.4-4.3-1.4-7.6c0-6.8,1.8-10.2,5.5-10.2
				c1.8,0,3.2,0.8,4.1,2.5C56.9,351,57.4,353.6,57.4,356.9z M53.9,356.9c0-2.7-0.2-4.4-0.5-5.3s-0.8-1.3-1.5-1.3
				c-0.7,0-1.2,0.4-1.5,1.3c-0.3,0.9-0.5,2.7-0.5,5.3c0,2.6,0.2,4.4,0.5,5.3c0.3,0.9,0.8,1.4,1.5,1.4c0.7,0,1.2-0.4,1.5-1.3
				C53.7,361.4,53.9,359.6,53.9,356.9z"/>
		</g>
	</g>
</g>
</svg>
