<svg id="Layer_1" data-name="Layer 1" xmlns="http://www.w3.org/2000/svg" width="349.09" height="580.94" viewBox="0 0 349.09 580.94"><defs><style>.cls-1,.cls-2,.cls-3,.cls-4{fill-rule:evenodd;}.cls-1,.cls-2,.cls-3,.cls-4,.cls-5,.cls-6,.cls-7,.cls-8,.cls-9{isolation:isolate;}.cls-1{opacity:0.94;}.cls-2{opacity:0.78;}.cls-3{opacity:0.97;}.cls-4{opacity:0.98;}.cls-6,.cls-7,.cls-8,.cls-9{font-size:29.88px;font-family:FranklinGothic-DemiCond, Franklin Gothic Demi Cond;font-weight:300;}.cls-6{letter-spacing:0.02em;}.cls-7{letter-spacing:0.02em;}.cls-8{letter-spacing:0.04em;}.cls-9{letter-spacing:0.03em;}</style></defs><path class="cls-1" d="M167.62,0a124.55,124.55,0,0,1,55.55,13.89,69.23,69.23,0,0,1,17.72,14.84,244.48,244.48,0,0,0,15.81,20.6L275.85,56a15.91,15.91,0,0,0,1,4.31,49.25,49.25,0,0,1,18.68,14.37,8.94,8.94,0,0,1-.48,5.75,254.82,254.82,0,0,1,10.06,36.4,41.08,41.08,0,0,1-1,14.36q-5.26,20.12-10.54,40.23-5.35,11.21-11.49,22a60.65,60.65,0,0,0-3.83,11.5,8.58,8.58,0,0,1-2.87,3.83,23.06,23.06,0,0,0-1.92-8.62,6.24,6.24,0,0,0-2.87,2.87A207.89,207.89,0,0,1,264,234.11a9.78,9.78,0,0,1-4.2,5.53,55.51,55.51,0,0,1-23.19,8,89.69,89.69,0,0,1-37.35-3.83,36.87,36.87,0,0,1-16.76-13.89A102.67,102.67,0,0,1,173.85,204q-3.58-7.67-10.54-2.88-8.51,53.72-62.74,46.46A71.35,71.35,0,0,1,76,240.19a9.59,9.59,0,0,1-3.42-3h0a10.52,10.52,0,0,1-1.74-4.05q-3.3-16.09-7.19-32-3.24-3.36-4.31,1.92a27.43,27.43,0,0,1,1,9.58,3,3,0,0,1-2.87-1,233.33,233.33,0,0,1-11-25.86,533.37,533.37,0,0,1-8.62-56.51,20.87,20.87,0,0,0-9.58-8.62A53.83,53.83,0,0,1,25.86,114a13.06,13.06,0,0,1,4.31-5.75A43.5,43.5,0,0,1,35.92,90a134,134,0,0,0,24.9-28.7,22.15,22.15,0,0,1,14.37-9.58A70.78,70.78,0,0,1,94.82,26.34a254.29,254.29,0,0,0,33.53-18.2c2.64-1,4.56-.13,5.75,2.4A202.76,202.76,0,0,1,167.62,0ZM152.29,28.73q43.19-3.46,53.16,38.32l-.95,1a103.61,103.61,0,0,0-15.81-17.72,56.88,56.88,0,0,0-34.48-11,195.85,195.85,0,0,0-34.48,5.27,1.6,1.6,0,0,1-.64-2.16c0-.08.1-.16.16-.24A135.17,135.17,0,0,1,152.29,28.73Zm50.77,4.79A35.35,35.35,0,0,1,223.65,54.6Q228,69.33,216,78.54q5.87-22.92-11.49-40.23A8.34,8.34,0,0,1,203.06,33.52ZM238.5,54.6q4.84,1.69,4.79,7.18a17.29,17.29,0,0,1-2.4,6.23A131.67,131.67,0,0,1,227,80.94a7.94,7.94,0,0,1-3.83.48q3.44-8.11,7.19-16.29c1.75-.57,3.51-1.2,5.27-1.91C236.74,60.36,237.69,57.49,238.5,54.6Zm-114,3.83a40.25,40.25,0,0,1,30.17,13.41,4.83,4.83,0,0,1,.48,2.87,56.37,56.37,0,0,0-30.65-2.39A301.07,301.07,0,0,0,87.16,84.77Q77.34,86,85.25,80.94a327.07,327.07,0,0,0,31.13-15.81,14.3,14.3,0,0,1,1.43-4.31c2.33-.82,4.56-1.66,6.71-2.39Zm134.09,7.66A50.19,50.19,0,0,0,271,69.44a8.32,8.32,0,0,1,5.75,4.79,3.75,3.75,0,0,1-2.87,1.44,133.6,133.6,0,0,1-15.33-4.31q-3.58-2.6,0-5.27ZM136,83.33a14.1,14.1,0,0,1,7.66,1.44,58.25,58.25,0,0,0,32.57,16.28,236,236,0,0,0,69-.48q20.46,1.73,27.3,21.07,1.75,29.28,4.31,58.43a3.59,3.59,0,0,1-3.35,2.88,103.26,103.26,0,0,0-47.41-6.23,179.36,179.36,0,0,0-27.78,3.83q-14.94,4.65-30.17,8.14-15.69-3.49-31.13-8.14a168.51,168.51,0,0,0-57.47-2.87,80.8,80.8,0,0,0-14.37,4.79c-3.26,1.18-4.86.07-4.79-3.36q2.41-13.94,5.27-27.77a204,204,0,0,1,1.92-26.82,134.12,134.12,0,0,0,32.08-13.89Q118.08,97.18,136,83.33ZM84.29,91h4.79a4.24,4.24,0,0,1-1,3.36A88.47,88.47,0,0,1,69,102a18.5,18.5,0,0,1-10.53-1,4.4,4.4,0,0,1-1.92-4.31,27.86,27.86,0,0,1,8.62,1,8.88,8.88,0,0,0,5.75-3.35A90.76,90.76,0,0,0,84.29,91Zm15.32,1.92h2.88a5.5,5.5,0,0,1-2.88,5.27A108.86,108.86,0,0,1,68,115.42q-12.53,4.44-21.55-5.27a4.83,4.83,0,0,1-.48-2.87,50,50,0,0,0,27.78-1.44A123.08,123.08,0,0,0,99.61,92.91Zm1,92a137.8,137.8,0,0,1,42.15,6.23q12.93,7.32,7.18,21.55Q139.52,244.19,106.36,241q-15.9-.42-26.23-11.71a13.56,13.56,0,0,1-1.91-2.61,24.62,24.62,0,0,1-3-9.14,74.61,74.61,0,0,1,1-23,14.8,14.8,0,0,1,7.18-6.23,122.11,122.11,0,0,1,17.17-3.4Zm118.77,0a105.29,105.29,0,0,1,33.53,3.35,15.15,15.15,0,0,1,8.14,12q5.26,35.79-30.17,40.7-25.47,3.67-40.71-16.76a39.36,39.36,0,0,1-5.75-23.94,15.93,15.93,0,0,1,9.1-9.1,147,147,0,0,1,25.82-6.31ZM66.09,187.73q5.75.24,3.83,5.27a6.86,6.86,0,0,1-7.66-1.91A18.34,18.34,0,0,1,66.09,187.73Zm201.14,0q5.75.24,3.83,5.27a6.75,6.75,0,0,1-7.66-1.91,18.86,18.86,0,0,1,3.83-3.36Z"/><path class="cls-2" d="M1,239.46H56.51a5.34,5.34,0,0,1-1.91,5.27q-25.39.95-50.77,0Q-1.06,243.65,1,239.46Z"/><path class="cls-2" d="M1,330.45H56.51a5.3,5.3,0,0,1-1.91,5.27q-25.39,1-50.77,0Q-1.06,334.64,1,330.45Z"/><path class="cls-2" d="M276.1,330.45h55.56a5.32,5.32,0,0,1-1.92,5.27q-25.38,1-50.76,0Q274.09,334.64,276.1,330.45Z"/><path class="cls-2" d="M276.1,239.46h55.56a5.32,5.32,0,0,1-1.92,5.27q-25.38.95-50.76,0Q274.09,243.65,276.1,239.46Z"/><path class="cls-3" d="M148.46,326.62A53.91,53.91,0,0,1,158,329q4.53,2.88,9.1,5.27A104.13,104.13,0,0,1,182,327.1a18.93,18.93,0,0,1,10.52,1.9,98.46,98.46,0,0,1,12,11,66.64,66.64,0,0,0,26.34,23.47q20,4.84,24.9-15.33a26.53,26.53,0,0,0-7.66-15.32q6-4.57,11,1.43A49.43,49.43,0,0,1,267.23,363q-.28,26-20.11,42.62-17.87,10.69-37.36,2.87A82.17,82.17,0,0,1,178.63,386a73.79,73.79,0,0,0-11-13.41,10.49,10.49,0,0,0-5.27,3.83q-19.1,30.81-55.07,35.44a32.79,32.79,0,0,1-25.87-11.5Q59.93,373.11,71.36,340q4-10,14.84-9.58a7.94,7.94,0,0,1-.48,3.83q-14.43,14,.48,27.3a17.83,17.83,0,0,0,17.24,1.92l7.67-3.83q13.85-13.41,26.82-27.78A26,26,0,0,1,148.46,326.62Z"/><path class="cls-4" d="M164.75,379.3a8.06,8.06,0,0,1,3.83.48,109.51,109.51,0,0,0,29.69,29.69,78.12,78.12,0,0,0,48.85,5.75,32.41,32.41,0,0,1,6.22,10.06,93,93,0,0,1,0,61.3q-2.53,3.65-5.26,0a91,91,0,0,1-25.86,51.72l-7.67,1a105.07,105.07,0,0,1-21.55,23q-7.4,7.32-3.35,16.76-2.88,3.77-6.71,0-42.21-5.87-67-40.23a20.21,20.21,0,0,1-14.85-12A102.83,102.83,0,0,1,91,485.62a17.87,17.87,0,0,1-5.74-.48q-14.87-34.49-.48-69.44a6.86,6.86,0,0,1,2.39-1.92q40.29,9.8,67.53-21.07Q159.48,385.78,164.75,379.3Zm78.54,65.13a6.07,6.07,0,0,1,3.35,5.75,31.32,31.32,0,0,1-6.23,26.34,3.71,3.71,0,0,1-4.78.48,48,48,0,0,0,7.66-32.57ZM113,476a3,3,0,0,1,2.88,1,68.51,68.51,0,0,0,10,21.07,31.12,31.12,0,0,1,8.15,7.66,3.07,3.07,0,0,1-3.84.48Q114.08,495.62,113,476Zm-5.74,10.54a2.75,2.75,0,0,1,2.39,1q11.43,37.23,42.62,59.86a49.3,49.3,0,0,0,23,7.66q2.73,1.2,1,3.35-27.92,3.89-45.5-18.19a119.5,119.5,0,0,1-23.49-53.64Z"/><g class="cls-5"><path d="M71.37,320.52c0,.45-.64.67-1.91.67s-3.44-.06-6.2-.19-4.84-.19-6.2-.19-3.41.06-6.11.19-4.74.19-6.11.19c-.82,0-1.3-.48-1.43-1.43v-2.34c0-1.27-.6-1.91-1.81-1.91q-11.12,0-13,.6a3.42,3.42,0,0,0-2.34,3q-.39,2.1-1.53,2.1-2,0-5.87-.19c-2.6-.13-4.56-.19-5.86-.19s-3.21.06-5.8.19-4.52.19-5.8.19c-.92,0-1.38-.4-1.38-1.19q0-1.44,22.56-65.07a3.63,3.63,0,0,1,.77-1.46,2.73,2.73,0,0,1,1.48-.26,40.41,40.41,0,0,1,4.93.43,40.69,40.69,0,0,0,4.94.43,44.19,44.19,0,0,0,9.4-.67,2.89,2.89,0,0,1,.81-.19c.54,0,1.18.54,1.91,1.62q.48.72,3.91,8.54,2.72,6,7.73,18.18,2.39,6.34,6.41,19.22t6.37,19.13A2.27,2.27,0,0,1,71.37,320.52Z"/><path d="M129.85,299.68a138.65,138.65,0,0,1-1.67,20.75c-.19,1.14-.68,1.71-1.48,1.71q.76,0-6.87-.52-10.87-.81-17.36-.81c-2.32,0-5.81.06-10.45.19s-8.13.19-10.45.19q-1.47,0-1.62-1.86c.06.89.1-.22.1-3.34l0-27.43q0-5.21-.48-16.65-.43-11-.43-16.6c0-.7.38-1.05,1.15-1.05q2,0,6,.19t6,.19q2.14,0,6.39-.21t6.39-.22c.51,0,.76.34.76,1l0,.53q-.63,8.06-1.39,24.23-.09,6.21-.09,9.78,0,4,.19,9.35.09,1.86.81,1.86,5.06,0,11-.57a93.09,93.09,0,0,0,11.93-1.86,3.51,3.51,0,0,1,.71-.09C129.56,298.44,129.85,298.85,129.85,299.68Z"/><path d="M199.92,255.4q0,5.53-.45,16.58T199,288.56c0,1.05,0,2.61,0,4.68s0,3.62,0,4.67q0,13.26-3.81,17.7-5.78,6.87-28,6.87-12.54,0-18.55-2.53A12.87,12.87,0,0,1,141.2,312q-1.42-4.25-1.43-14c0-.92,0-2.43,0-4.53v-5q0-5.54-.46-16.63t-.45-16.62q0-1,1.14-1.05c2.36,0,5.91,0,10.67.09s8.3.1,10.66.1c2,0,2.81,0,2.34,0q1.62.15,1.62,1,0,5.49-.5,16.51t-.5,16.5c0,.42,0,1.13-.05,2.15s0,1.8,0,2.34q0,9.21,5.68,9.21,4.62,0,4.62-7.11,0-6.49-.4-19.51T173.73,256q0-1.42.81-1.47a46.57,46.57,0,0,1,6-.05l6.2.14c1.33,0,3.34-.06,6-.19s4.68-.19,6-.19C199.53,254.26,199.92,254.64,199.92,255.4Z"/><path d="M273.43,320.67c0,.35-.43.52-1.28.52q-2.1,0-6.23-.19t-6.18-.19q-2,0-5.94.19t-5.89.19a2.1,2.1,0,0,1-2.14-1.19c-.58-1.43-1.4-3.6-2.48-6.49q-1.59-3.92-4.49-11.88c-.45-1.37-.86-2.05-1.24-2.05s-.43.52-.43,1.57c0,2.17.22,5.41.64,9.74s.65,7.5.65,9.54c0,.73-.32,1.09-1,1.09a7.79,7.79,0,0,1-1.19-.14,98.32,98.32,0,0,0-12.4-.57c-1.21,0-3,.06-5.46.19s-4.26.19-5.47.19c-1.05,0-1.57-.46-1.57-1.38q0-5.34.57-16.06c.38-7.13.57-12.49.57-16.05q0-13.63-1.33-31.68l-.05-.66a.92.92,0,0,1,.91-1.1h1.81q5.21,0,15.69-.14t15.75-.15q11.16,0,18.41,4.73,8.44,5.58,8.45,16.17,0,6.87-2,11.07a22.16,22.16,0,0,1-7.37,8c-.77.54-1.15,1.07-1.15,1.58s2,4.57,5.92,12.59S273.43,320.32,273.43,320.67Z"/><path d="M349.09,320.52c0,.45-.64.67-1.91.67s-3.43-.06-6.2-.19-4.83-.19-6.2-.19-3.4.06-6.11.19-4.74.19-6.1.19c-.83,0-1.31-.48-1.44-1.43v-2.34c0-1.27-.6-1.91-1.81-1.91q-11.11,0-13,.6a3.45,3.45,0,0,0-2.34,3c-.25,1.4-.76,2.1-1.52,2.1q-2,0-5.87-.19t-5.87-.19q-1.9,0-5.8.19c-2.59.13-4.52.19-5.79.19-.93,0-1.39-.4-1.39-1.19q0-1.44,22.57-65.07a3.66,3.66,0,0,1,.76-1.46,2.76,2.76,0,0,1,1.48-.26,40.69,40.69,0,0,1,4.94.43,40.53,40.53,0,0,0,4.94.43,44.14,44.14,0,0,0,9.39-.67,3,3,0,0,1,.81-.19c.54,0,1.18.54,1.91,1.62q.48.72,3.91,8.54,2.73,6,7.73,18.18,2.38,6.34,6.42,19.22T349,319.9A2.56,2.56,0,0,1,349.09,320.52Z"/></g><text class="cls-6" transform="translate(276.81 367.49) scale(0.77 1)">2022</text><text class="cls-7" transform="translate(1.92 367.49) scale(0.77 1)">E</text><text class="cls-8" transform="translate(13.32 367.49) scale(0.77 1)">S</text><text class="cls-9" transform="translate(26.01 367.49) scale(0.77 1)">T</text><text class="cls-6" transform="translate(35.68 367.49) scale(0.77 1)">O</text></svg>